<?xml version="1.0" encoding="utf-8"?>
<!-- Generator: Adobe Illustrator 21.1.0, SVG Export Plug-In . SVG Version: 6.00 Build 0)  -->
<svg version="1.1" id="Слой_1" xmlns="http://www.w3.org/2000/svg" xmlns:xlink="http://www.w3.org/1999/xlink" x="0px" y="0px"
	 viewBox="0 0 32 32" style="enable-background:new 0 0 32 32;" xml:space="preserve">
<style type="text/css">
	.st0{fill:#786968;}
	.st1{fill:#921A15;}
	.st2{fill-rule:evenodd;clip-rule:evenodd;fill:#FFFFFF;}
	.st3{fill:#721A12;}
	.st4{fill:#FFFFFF;}
	.st5{fill:none;stroke:#721A12;stroke-width:0.25;stroke-miterlimit:10;}
	.st6{fill:none;stroke:#941915;stroke-width:0.25;stroke-miterlimit:10;}
	.st7{fill:#941915;}
</style>
<g>
	<polygon class="st0" points="63.7,21.8 57.5,24.4 44.7,10.2 51,7.6 	"/>
	<polygon class="st0" points="56.8,24.6 53.1,30 40.5,15.7 44.2,10.3 	"/>
	<polygon class="st0" points="68,16.3 64.3,21.7 51.7,7.4 55.4,2 	"/>
	<g>
		<path class="st1" d="M58.2,4.1c0-1-0.7-1.8-1.6-1.8S55,3.1,55,4.1s1.3,2.7,1.6,2.7C56.9,6.9,58.2,5.1,58.2,4.1z"/>
		<g>
			<path class="st2" d="M56.2,5.1c-0.1-0.1-0.2-0.6-0.2-1c0,0.1,0,0.1,0,0.1c0.2,0.4,1.1,0.6,1.5,0.5c-0.2,0.3-0.6,0.4-1,0.4
				C56.4,5.2,56.3,5.2,56.2,5.1"/>
			<g>
				<path class="st2" d="M57.6,4.6c-0.3,0-0.7,0-1,0c0.5-0.1,0.9-0.9,1-1.3c0.1,0.2,0.2,0.4,0.2,0.7C57.8,4.2,57.8,4.4,57.6,4.6"/>
				<path class="st2" d="M56.5,2.7l-0.2,0.4l0,0l0,0l0,0l0,0l0,0l0,0l0,0l0,0l0,0l0,0l0,0l0,0l0,0l0,0h0l0,0l0,0l0,0l0,0l0,0l0,0
					l0,0h0l0,0l0,0l0,0l0,0l0,0l0,0l0,0l0,0l0,0l0,0l0,0h0l0,0h0l0,0h0l0,0h0l0,0l0,0l0,0h0l0,0l0,0l0,0l0,0l0,0l0,0h0l0,0h0l0,0h0
					l0,0l0,0l0,0h0l0,0h0l0,0l0,0l0,0l0,0l0,0l0,0l0,0l0,0l0,0h0l0,0l0,0l0,0l0,0l0,0l0,0l0,0l0,0l0,0l0,0l0,0l0,0l0,0l0,0
					C55.9,4,55.8,4.6,55.9,5c-0.3-0.2-0.6-0.6-0.6-1.1C55.3,3.3,55.8,2.7,56.5,2.7"/>
				<path class="st2" d="M57.5,3.1c0,0.4-0.1,0.8-0.3,1.1c0-0.1,0-0.1,0-0.2c0-0.1,0-0.2-0.1-0.4c-0.1-0.2-0.2-0.3-0.2-0.5l-0.2-0.4
					C57,2.7,57.3,2.9,57.5,3.1"/>
			</g>
		</g>
	</g>
	<g>
		<path class="st1" d="M64.3,9.7c0-1.4-1-2.5-2.2-2.5c-1.2,0-2.2,1.1-2.2,2.5s1.7,3.7,2.2,3.7C62.5,13.4,64.3,11,64.3,9.7z"/>
		<g>
			<path class="st2" d="M61.5,11c-0.2-0.2-0.3-0.8-0.3-1.4c0,0.1,0,0.1,0.1,0.2c0.2,0.6,1.5,0.8,2.1,0.7c-0.3,0.4-0.8,0.6-1.3,0.6
				C61.9,11.1,61.7,11.1,61.5,11"/>
			<g>
				<path class="st2" d="M63.5,10.3c-0.4,0.1-1,0.1-1.3,0c0.7-0.1,1.2-1.3,1.3-1.8c0.2,0.3,0.2,0.6,0.2,0.9
					C63.8,9.7,63.7,10.1,63.5,10.3"/>
				<path class="st2" d="M61.9,7.7l-0.2,0.5l0,0l0,0l0,0l0,0l0,0l0,0l0,0l0,0l0,0l0,0l0,0l0,0l0,0l0,0h0l0,0l0,0l0,0l0,0l0,0l0,0
					l0,0h0l0,0l0,0l0,0l0,0l0,0l0,0l0,0l0,0l0,0l0,0l0,0h0l0,0h0l0,0h0l0,0h0l0,0l0,0l0,0h0l0,0l0,0l0,0l0,0l0,0l0,0h0l0,0h0l0,0h0
					l0,0l0,0l0,0h0l0,0h0l0,0l0,0l0,0l0,0l0,0l0,0l0,0l0,0l0,0h0l0,0l0,0l0,0l0,0l0,0l0,0l0,0l0,0l0,0l0,0l0,0l0,0l0,0l0,0
					c-0.2,0.6-0.4,1.3-0.2,1.9c-0.5-0.3-0.8-0.8-0.8-1.4C60.3,8.5,61.1,7.8,61.9,7.7"/>
				<path class="st2" d="M63.3,8.2c0,0.5-0.2,1.1-0.4,1.5c0-0.1,0-0.2,0-0.3c0-0.2-0.1-0.3-0.2-0.5c-0.1-0.2-0.2-0.4-0.3-0.7
					l-0.2-0.5C62.6,7.7,63,7.9,63.3,8.2"/>
			</g>
		</g>
	</g>
	<g>
		<path class="st1" d="M61.5,17.5c0-2.1-1.5-3.8-3.3-3.8c-1.8,0-3.3,1.7-3.3,3.8s2.6,5.7,3.3,5.7C58.8,23.2,61.5,19.6,61.5,17.5z"/>
		<g>
			<path class="st2" d="M57.3,19.6c-0.3-0.3-0.5-1.2-0.4-2.1c0,0.1,0,0.2,0.1,0.3c0.4,0.9,2.3,1.3,3.1,1c-0.5,0.6-1.2,0.9-2,0.9
				C57.8,19.7,57.6,19.7,57.3,19.6"/>
			<g>
				<path class="st2" d="M60.3,18.5c-0.6,0.1-1.5,0.1-2,0c1.1-0.2,1.8-1.9,2-2.8c0.2,0.4,0.4,0.9,0.4,1.4
					C60.7,17.6,60.6,18.1,60.3,18.5"/>
				<path class="st2" d="M57.9,14.5l-0.4,0.8l0,0l0,0l0,0l0,0l0,0l0,0l0,0l0,0l0,0l0,0l0,0l0,0l0,0l0,0h0l0,0l0,0l0,0l0,0l0,0l0,0
					l0,0h0l0,0l0,0l0,0l0,0l0,0l0,0l0,0l0,0l0,0l0,0l0,0h0l0,0h0l0,0h0l0,0h0l0,0l0,0l0,0h0l0,0l0,0l0,0l0,0l0,0l0,0h0l0,0h0l0,0h0
					l0,0l0,0l0,0h0l0,0h0l0,0l0,0l0,0l0,0l0,0l0,0l0,0l0,0l0,0h0l0,0l0,0l0,0l0,0l0,0l0,0l0,0l0,0l0,0l0,0l0,0l0,0l0,0l0,0
					c-0.3,0.9-0.6,2-0.4,2.9c-0.7-0.5-1.2-1.3-1.2-2.2C55.5,15.7,56.6,14.6,57.9,14.5"/>
				<path class="st2" d="M60,15.3c0,0.8-0.2,1.7-0.6,2.3c0-0.1,0-0.3,0-0.4c0-0.2-0.1-0.5-0.2-0.8c-0.1-0.3-0.3-0.7-0.5-1.1
					l-0.4-0.8C59,14.5,59.5,14.8,60,15.3"/>
			</g>
		</g>
	</g>
	<g>
		<path class="st1" d="M49.1,13.9c0-1.7-1.2-3.1-2.8-3.1c-1.5,0-2.8,1.4-2.8,3.1s2.2,4.7,2.8,4.7C46.9,18.6,49.1,15.6,49.1,13.9z"/>
		<g>
			<path class="st2" d="M45.7,15.6c-0.2-0.2-0.4-1-0.3-1.7c0,0.1,0,0.2,0.1,0.2c0.3,0.8,1.9,1.1,2.6,0.9c-0.4,0.5-1,0.8-1.6,0.8
				C46.1,15.7,45.9,15.7,45.7,15.6"/>
			<g>
				<path class="st2" d="M48.1,14.7c-0.5,0.1-1.2,0.1-1.7,0c0.9-0.1,1.5-1.6,1.7-2.3c0.2,0.3,0.3,0.7,0.3,1.1
					C48.5,14,48.4,14.4,48.1,14.7"/>
				<path class="st2" d="M46.2,11.4L45.9,12l0,0l0,0l0,0l0,0l0,0l0,0l0,0l0,0l0,0l0,0l0,0l0,0l0,0l0,0h0l0,0l0,0l0,0l0,0l0,0l0,0
					l0,0h0l0,0l0,0l0,0l0,0l0,0l0,0l0,0l0,0l0,0l0,0l0,0h0l0,0h0l0,0h0l0,0h0l0,0l0,0l0,0h0l0,0l0,0l0,0l0,0l0,0l0,0h0l0,0h0l0,0h0
					l0,0l0,0l0,0h0l0,0h0l0,0l0,0l0,0l0,0l0,0l0,0l0,0l0,0l0,0h0l0,0l0,0l0,0l0,0l0,0l0,0l0,0l0,0l0,0l0,0l0,0l0,0l0,0l0,0
					c-0.3,0.7-0.5,1.6-0.3,2.4c-0.6-0.4-1-1.1-1-1.8C44.2,12.4,45.1,11.5,46.2,11.4"/>
				<path class="st2" d="M47.9,12c0,0.6-0.2,1.4-0.5,1.9c0-0.1,0-0.2,0-0.4c0-0.2-0.1-0.4-0.2-0.7c-0.1-0.3-0.3-0.6-0.4-0.9
					l-0.3-0.6C47,11.4,47.5,11.7,47.9,12"/>
			</g>
		</g>
	</g>
</g>
<g>
	<g>
		<path class="st3" d="M105.5,14c-0.6,0-1.1,0.2-1.5,0.5v-2.2c0-0.7-0.6-1.3-1.3-1.3h-2.2c0.3-0.4,0.5-0.9,0.5-1.5
			c0-1.4-1.1-2.5-2.5-2.5S96,8.1,96,9.5c0,0.6,0.2,1.1,0.5,1.5h-3.2c-0.7,0-1.3,0.6-1.3,1.3v1.2c0.4-0.3,0.9-0.5,1.5-0.5
			c1.4,0,2.5,1.1,2.5,2.5c0,1.4-1.1,2.5-2.5,2.5c-0.6,0-1.1-0.2-1.5-0.5v4.2c0,0.7,0.6,1.3,1.3,1.3h4.2c-0.3-0.4-0.5-0.9-0.5-1.5
			c0-1.4,1.1-2.5,2.5-2.5s2.5,1.1,2.5,2.5c0,0.6-0.2,1.1-0.5,1.5h1.2c0.7,0,1.3-0.6,1.3-1.3v-3.2c0.4,0.3,0.9,0.5,1.5,0.5
			c1.4,0,2.5-1.1,2.5-2.5C108,15.1,106.9,14,105.5,14z"/>
		<path class="st4" d="M102.7,23.1h-1.5l0.2-0.2c0.3-0.4,0.5-0.9,0.5-1.4c0-1.3-1.1-2.4-2.4-2.4s-2.4,1.1-2.4,2.4
			c0,0.5,0.2,1,0.5,1.4l0.2,0.2h-4.5c-0.8,0-1.4-0.6-1.4-1.4v-4.5l0.2,0.2c0.4,0.3,0.9,0.5,1.4,0.5c1.3,0,2.4-1.1,2.4-2.4
			s-1.1-2.4-2.4-2.4c-0.5,0-1,0.2-1.4,0.5l-0.2,0.2v-1.5c0-0.8,0.6-1.4,1.4-1.4h3c-0.3-0.4-0.4-0.9-0.4-1.4c0-1.4,1.2-2.6,2.6-2.6
			s2.6,1.2,2.6,2.6c0,0.5-0.1,1-0.4,1.4h2c0.8,0,1.4,0.6,1.4,1.4v2c0.4-0.3,0.9-0.4,1.4-0.4c1.4,0,2.6,1.2,2.6,2.6s-1.2,2.6-2.6,2.6
			c-0.5,0-1-0.1-1.4-0.4v3C104.1,22.5,103.5,23.1,102.7,23.1z M101.7,22.9h1c0.6,0,1.1-0.5,1.1-1.1v-3.5l0.2,0.2
			c0.4,0.3,0.9,0.5,1.4,0.5c1.3,0,2.4-1.1,2.4-2.4s-1.1-2.4-2.4-2.4c-0.5,0-1,0.2-1.4,0.5l-0.2,0.2v-2.5c0-0.6-0.5-1.1-1.1-1.1h-2.5
			l0.2-0.2c0.3-0.4,0.5-0.9,0.5-1.4c0-1.3-1.1-2.4-2.4-2.4s-2.4,1.1-2.4,2.4c0,0.5,0.2,1,0.5,1.4l0.2,0.2h-3.5
			c-0.6,0-1.1,0.5-1.1,1.1v1c0.4-0.3,0.9-0.4,1.4-0.4c1.4,0,2.6,1.2,2.6,2.6s-1.2,2.6-2.6,2.6c-0.5,0-1-0.1-1.4-0.4v4
			c0,0.6,0.5,1.1,1.1,1.1h4c-0.3-0.4-0.4-0.9-0.4-1.4c0-1.4,1.2-2.6,2.6-2.6s2.6,1.2,2.6,2.6C102.1,22,102,22.5,101.7,22.9z"/>
	</g>
	<g>
		<path class="st0" d="M117.5,15c-0.6,0-1.1,0.2-1.5,0.5v-3.2c0-0.7-0.6-1.3-1.3-1.3h-1.2c0.3,0.4,0.5,0.9,0.5,1.5
			c0,1.4-1.1,2.5-2.5,2.5s-2.5-1.1-2.5-2.5c0-0.6,0.2-1.1,0.5-1.5h-4.2c-0.7,0-1.3,0.6-1.3,1.3v2.2c0.4-0.3,0.9-0.5,1.5-0.5
			c1.4,0,2.5,1.1,2.5,2.5c0,1.4-1.1,2.5-2.5,2.5c-0.6,0-1.1-0.2-1.5-0.5v3.2c0,0.7,0.6,1.3,1.3,1.3h3.2c-0.3,0.4-0.5,0.9-0.5,1.5
			c0,1.4,1.1,2.5,2.5,2.5s2.5-1.1,2.5-2.5c0-0.6-0.2-1.1-0.5-1.5h2.2c0.7,0,1.3-0.6,1.3-1.3v-2.2c0.4,0.3,0.9,0.5,1.5,0.5
			c1.4,0,2.5-1.1,2.5-2.5C120,16.1,118.9,15,117.5,15z"/>
		<path class="st4" d="M110.5,27.1c-1.4,0-2.6-1.2-2.6-2.6c0-0.5,0.1-1,0.4-1.4h-3c-0.8,0-1.4-0.6-1.4-1.4v-3.5l0.2,0.2
			c0.4,0.3,0.9,0.5,1.4,0.5c1.3,0,2.4-1.1,2.4-2.4s-1.1-2.4-2.4-2.4c-0.5,0-1,0.2-1.4,0.5l-0.2,0.2v-2.5c0-0.8,0.6-1.4,1.4-1.4h4.5
			l-0.2,0.2c-0.3,0.4-0.5,0.9-0.5,1.4c0,1.3,1.1,2.4,2.4,2.4s2.4-1.1,2.4-2.4c0-0.5-0.2-1-0.5-1.4l-0.2-0.2h1.5
			c0.8,0,1.4,0.6,1.4,1.4v3c0.4-0.3,0.9-0.4,1.4-0.4c1.4,0,2.6,1.2,2.6,2.6s-1.2,2.6-2.6,2.6c-0.5,0-1-0.1-1.4-0.4v2
			c0,0.8-0.6,1.4-1.4,1.4h-2c0.3,0.4,0.4,0.9,0.4,1.4C113.1,25.9,111.9,27.1,110.5,27.1z M104.1,18.7v3c0,0.6,0.5,1.1,1.1,1.1h3.5
			l-0.2,0.2c-0.3,0.4-0.5,0.9-0.5,1.4c0,1.3,1.1,2.4,2.4,2.4s2.4-1.1,2.4-2.4c0-0.5-0.2-1-0.5-1.4l-0.2-0.2h2.5
			c0.6,0,1.1-0.5,1.1-1.1v-2.5l0.2,0.2c0.4,0.3,0.9,0.5,1.4,0.5c1.3,0,2.4-1.1,2.4-2.4s-1.1-2.4-2.4-2.4c-0.5,0-1,0.2-1.4,0.5
			l-0.2,0.2v-3.5c0-0.6-0.5-1.1-1.1-1.1h-1c0.3,0.4,0.4,0.9,0.4,1.4c0,1.4-1.2,2.6-2.6,2.6s-2.6-1.2-2.6-2.6c0-0.5,0.1-1,0.4-1.4h-4
			c-0.6,0-1.1,0.5-1.1,1.1v2c0.4-0.3,0.9-0.4,1.4-0.4c1.4,0,2.6,1.2,2.6,2.6s-1.2,2.6-2.6,2.6C105,19.1,104.5,19,104.1,18.7z"/>
	</g>
</g>
<g>
	<ellipse class="st0" cx="106" cy="-39.1" rx="5.5" ry="7.9"/>
	<path class="st0" d="M110.2-32.7L110.2-32.7c-1.2,1.2-2.6,2-4.2,2s-3-0.7-4.1-2h-0.1c-3.7,0-6.8,3.5-6.8,7.9v1.7h22v-1.7
		C117-29.2,113.9-32.7,110.2-32.7z"/>
</g>
<g>
	<path class="st0" d="M-35.4-43.6c-0.1-0.1-0.2-0.1-0.3-0.2c-1.5-0.3-3-0.7-4.5-1c-1-0.2-1.1,1.4-0.1,1.6c1.3,0.3,2.6,0.6,3.9,0.8
		c0.6,3.2,1.3,6.5,1.9,9.7c0.2,1,1.7,0.7,1.5-0.3c-0.7-3.4-1.3-6.8-2-10.2C-35.1-43.3-35.2-43.5-35.4-43.6z"/>
</g>
<g>
	<rect x="-30.2" y="-28.7" class="st0" width="13.4" height="1.5"/>
</g>
<rect x="-28.9" y="-38.9" class="st5" width="11.7" height="9.5"/>
<rect x="-28.9" y="-43.9" class="st6" width="6.5" height="3.7"/>
<rect x="-21.5" y="-42.4" transform="matrix(0.9893 -0.1458 0.1458 0.9893 5.7669 -3.33)" class="st6" width="3.3" height="2.7"/>
<g>
	<path class="st0" d="M-33.2-25c-2.2,0-4-1.8-4-4s1.8-4,4-4s4,1.8,4,4S-31-25-33.2-25z M-33.2-31.9c-1.6,0-3,1.3-3,3s1.3,3,3,3
		c1.6,0,3-1.3,3-3S-31.6-31.9-33.2-31.9z"/>
</g>
<g>
	<path class="st0" d="M-14.1-25c-1.7,0-3.1-1.4-3.1-3.1c0-1.7,1.4-3.1,3.1-3.1s3.1,1.4,3.1,3.1C-11-26.4-12.4-25-14.1-25z
		 M-14.1-30.1c-1.1,0-2,0.9-2,2c0,1.1,0.9,2,2,2s2-0.9,2-2C-12-29.2-12.9-30.1-14.1-30.1z"/>
</g>
<g>
	<g>
		<g>
			<path class="st1" d="M4.7-42.2c-0.1-0.1-0.2-0.1-0.2-0.2c-1-0.4-2.1-0.8-3.1-1.1c-0.7-0.2-0.6,1.3,0.1,1.6c0.9,0.3,1.8,0.7,2.7,1
				c0.8,3.2,1.5,6.4,2.3,9.6c0.2,1,1.2,0.8,1-0.2C6.6-35,5.8-38.3,5-41.7C4.9-41.9,4.8-42.1,4.7-42.2z"/>
		</g>
	</g>
	<g>
		<g>
			<rect x="10.6" y="-28.4" class="st1" width="16" height="1.1"/>
		</g>
	</g>
	<g>
		<path class="st3" d="M25.6-29.5H12.1v-8.8h13.4V-29.5z M12.4-29.8h12.9V-38H12.4V-29.8z"/>
	</g>
	<g>
		<path class="st7" d="M20-38.6h-7.9V-45H20V-38.6z M12.4-38.9h7.3v-5.9h-7.3V-38.9z"/>
	</g>
	<g>
		<path class="st7" d="M22-38.4l-0.4-2.9l3.6-0.5l0.4,2.9L22-38.4z M21.8-41l0.4,2.3l3-0.4l-0.4-2.3L21.8-41z"/>
	</g>
	<g>
		<g>
			<path class="st1" d="M7.7-25c-1.8,0-3.3-1.4-3.3-3.2s1.5-3.2,3.3-3.2s3.3,1.4,3.3,3.2S9.5-25,7.7-25z M7.7-30.5
				c-1.4,0-2.5,1.1-2.5,2.3s1.1,2.3,2.5,2.3s2.5-1.1,2.5-2.3S9-30.5,7.7-30.5z"/>
		</g>
	</g>
	<g>
		<g>
			<path class="st1" d="M28.7-25c-1.4,0-2.5-1.1-2.5-2.5c0-1.4,1.1-2.5,2.5-2.5s2.5,1.1,2.5,2.5C31.2-26.1,30-25,28.7-25z
				 M28.7-29.1c-0.9,0-1.6,0.7-1.6,1.6s0.7,1.6,1.6,1.6s1.6-0.7,1.6-1.6S29.6-29.1,28.7-29.1z"/>
		</g>
	</g>
</g>
<g>
	<g>
		<path class="st1" d="M-23.4,20.9c-3.6,0-6.5-2.9-6.5-6.5S-27,8-23.4,8s6.5,2.9,6.5,6.5S-19.9,20.9-23.4,20.9z M-23.4,8.9
			c-3.1,0-5.5,2.5-5.5,5.5s2.5,5.5,5.5,5.5c3.1,0,5.5-2.5,5.5-5.5S-20.4,8.9-23.4,8.9z"/>
	</g>
	<g>
		<path class="st1" d="M-21,17.9l-2.5-1.3l-2.5,1.3l0.5-2.7l-2-1.9l2.7-0.4l1.2-2.5l1.2,2.5l2.7,0.4l-2,1.9L-21,17.9z M-23.5,16.1
			l1.9,1l-0.4-2.1l1.5-1.5l-2.1-0.3l-1-1.9l-1,1.9l-2.1,0.3L-25,15l-0.4,2.1L-23.5,16.1z"/>
	</g>
	<g>
		<g>
			<path class="st1" d="M-20,19.4c-0.1,0-0.1-0.1-0.2-0.1c1,2.3,2.1,4.6,3.1,6.9c0.1,0.2,0.4,0.1,0.3-0.1c-1-2.3-2.1-4.6-3.1-6.9"/>
			<path class="st1" d="M-16.9,26.4C-16.9,26.4-16.9,26.4-16.9,26.4c-0.1,0-0.2-0.1-0.3-0.2l-3.2-7.1l0.5,0.2l0,0l0.2-0.1l3.1,6.9
				c0,0.1,0,0.2,0,0.2C-16.7,26.4-16.8,26.4-16.9,26.4z M-20,19.5l3,6.7c0,0,0,0,0.1,0c0,0,0.1,0,0.1,0l-3.1-6.8L-20,19.5z"/>
		</g>
		<g>
			<path class="st1" d="M-23.7,20.4c1,2.3,2.1,4.6,3.1,6.9c0.1,0.1,0.2,0.1,0.3,0c0.5-0.6,0.9-1.2,1.4-1.7c-0.1,0-0.1,0-0.2,0.1
				c0.7,0.2,1.4,0.5,2.1,0.7c0.2,0.1,0.3-0.2,0.1-0.3c-0.7-0.2-1.4-0.5-2.1-0.7c-0.1,0-0.2,0-0.2,0.1c-0.5,0.6-0.9,1.2-1.4,1.7
				c0.1,0,0.2,0,0.3,0c-1-2.3-2.1-4.6-3.1-6.9c0,0.1-0.1,0.1-0.1,0.2"/>
			<path class="st1" d="M-20.4,27.5C-20.4,27.5-20.4,27.5-20.4,27.5c-0.1,0-0.2-0.1-0.3-0.2l0-0.1l-0.1,0l0-0.1l-3.1-6.7l0.2-0.1
				l0,0.1l0.2-0.3l3,6.6l1.1-1.3c0.1-0.1,0.2-0.1,0.3-0.1l0.3,0.1l0.1,0l0,0l1.7,0.6c0.2,0.1,0.2,0.2,0.2,0.3c0,0.1-0.2,0.2-0.4,0.2
				l-1.9-0.6l-1.2,1.5l0,0.1l-0.1,0l0,0.1C-20.2,27.4-20.3,27.5-20.4,27.5z M-20.2,26.9l0,0.1l1-1.3l-0.1,0L-20.2,26.9z M-23.5,20.5
				l3,6.5l0.1-0.1l-2.9-6.3l0,0L-23.5,20.5z M-18.7,25.6l1.8,0.6c0,0,0.1,0,0.1,0c0,0,0,0,0,0L-18.7,25.6L-18.7,25.6z M-19,25.4
				C-19,25.4-19,25.5-19,25.4L-19,25.4L-19,25.4L-19,25.4C-19,25.4-19,25.4-19,25.4z"/>
		</g>
	</g>
	<g>
		<g>
			<path class="st1" d="M-27,20c0.1,0,0.1-0.1,0.2-0.1c-1,2.3-2,4.6-3.1,6.9c-0.1,0.2-0.4,0.1-0.3-0.1c1-2.3,2-4.6,3.1-6.9"/>
			<path class="st1" d="M-30,26.9c0,0-0.1,0-0.1,0c-0.1-0.1-0.2-0.2-0.1-0.3l3.1-6.9l0.2,0.1l0,0l0.5-0.2l-3.2,7.1
				C-29.8,26.9-29.9,26.9-30,26.9z M-30.1,26.7C-30.1,26.7-30.1,26.7-30.1,26.7c0.1,0,0.1,0,0.1,0l3-6.7l-0.1-0.1L-30.1,26.7z"/>
		</g>
		<g>
			<path class="st1" d="M-23.4,20.9c-1,2.3-2,4.6-3.1,6.9c-0.1,0.1-0.2,0.1-0.3,0c-0.5-0.6-0.9-1.2-1.4-1.7c0.1,0,0.1,0,0.2,0.1
				c-0.7,0.2-1.4,0.5-2,0.7c-0.2,0.1-0.3-0.2-0.1-0.3c0.7-0.2,1.4-0.5,2-0.7c0.1,0,0.2,0,0.2,0.1c0.5,0.6,0.9,1.2,1.4,1.7
				c-0.1,0-0.2,0-0.3,0c1-2.3,2-4.6,3.1-6.9c0,0.1,0.1,0.1,0.1,0.2"/>
			<path class="st1" d="M-26.6,28c-0.1,0-0.2,0-0.2-0.1l0-0.1l-0.1,0l0-0.1l-1.2-1.5l-1.9,0.6c-0.1,0-0.2,0-0.3,0
				c-0.1-0.1-0.1-0.2-0.1-0.2c0-0.1,0.1-0.2,0.2-0.2l1.7-0.6l0,0l0.1,0l0.3-0.1c0.1,0,0.3,0,0.3,0.1l1.1,1.3l2.9-6.6l0.2,0.3l0-0.1
				l0.2,0.1l-3,6.7l0,0.1l-0.1,0l0,0.1C-26.4,27.9-26.5,28-26.6,28C-26.6,28-26.6,28-26.6,28z M-27.9,26.2l1,1.3l0-0.1L-27.9,26.2
				L-27.9,26.2z M-26.5,27.4L-26.5,27.4l3-6.4l-0.2,0.1l0,0L-26.5,27.4z M-28.3,26.1l-1.8,0.6c0,0,0,0,0,0c0,0,0,0,0,0c0,0,0,0,0,0
				L-28.3,26.1L-28.3,26.1z M-28,26l0.1,0l0,0C-27.9,26-28,26-28,26L-28,26z"/>
		</g>
	</g>
</g>
<g>
	<g>
		<path class="st1" d="M17.5,21.9c-4.7,0-8.5-4-8.5-8.9s3.8-8.9,8.5-8.9s8.5,4,8.5,8.9S22.2,21.9,17.5,21.9z M17.5,4.7
			c-4.4,0-8,3.7-8,8.3s3.6,8.3,8,8.3s8-3.7,8-8.3S21.9,4.7,17.5,4.7z"/>
	</g>
	<g>
		<path class="st1" d="M13.3,28.6C13.3,28.6,13.3,28.6,13.3,28.6c-0.1,0-0.1,0-0.1-0.1l-1-1.9l-2.7,0.9c-0.1,0-0.1,0-0.2,0
			c0,0,0-0.1,0-0.2l4.1-7l0.2,0.1l-4,6.7l2.5-0.8c0.1,0,0.1,0,0.2,0.1l1,1.8l4-6.8l0.2,0.1l-4.1,7C13.4,28.5,13.3,28.6,13.3,28.6z"
			/>
	</g>
	<g>
		<path class="st1" d="M21.7,28.6c0,0-0.1,0-0.1-0.1l-4.1-7l0.2-0.1l4,6.8l1-1.8c0-0.1,0.1-0.1,0.2-0.1l2.5,0.8l-4-6.7l0.2-0.1
			l4.1,7c0,0,0,0.1,0,0.2c0,0-0.1,0.1-0.2,0l-2.7-0.9l-1,1.9C21.8,28.5,21.8,28.6,21.7,28.6C21.8,28.6,21.7,28.6,21.7,28.6z"/>
	</g>
	<g>
		<path class="st1" d="M14.5,17.5l0.6-3.3l-2.4-2.4l3.3-0.5l1.5-3l1.5,3l3.3,0.5l-2.4,2.4l0.6,3.3l-3-1.6L14.5,17.5z M17.5,15.7
			l2.6,1.4l-0.5-2.9l2.1-2.1l-2.9-0.4l-1.3-2.7l-1.3,2.7l-0.1,0L13.2,12l2.1,2.1L14.8,17L17.5,15.7z"/>
	</g>
</g>
</svg>
