<svg id="Слой_1" data-name="Слой 1" xmlns="http://www.w3.org/2000/svg" viewBox="0 0 32 32"><defs><style>.cls-1{fill:#721a12;}</style></defs><title>icon</title><path class="cls-1" d="M16,5.25c2.89,0,5.25,3.44,5.25,7.67S18.89,20.59,16,20.59s-5.25-3.44-5.25-7.67S13.11,5.25,16,5.25M16,5c-3,0-5.5,3.55-5.5,7.92S13,20.84,16,20.84s5.5-3.55,5.5-7.92S19,5,16,5Z"/><path class="cls-1" d="M20.22,19.51c3.6,0,6.53,3.43,6.53,7.6v1.47H5.25V27.11c0-4.18,2.93-7.58,6.53-7.6a5.81,5.81,0,0,0,4.22,2,5.81,5.81,0,0,0,4.22-2m0-.25h-.07a5.63,5.63,0,0,1-4.11,2,5.63,5.63,0,0,1-4.11-2h-.07C8.07,19.26,5,22.79,5,27.11v1.72H27V27.11c0-4.32-3.07-7.85-6.82-7.85Z"/></svg>