<?xml version="1.0" encoding="utf-8"?>
<!-- Generator: Adobe Illustrator 21.1.0, SVG Export Plug-In . SVG Version: 6.00 Build 0)  -->
<svg version="1.1" id="Слой_1" xmlns="http://www.w3.org/2000/svg" xmlns:xlink="http://www.w3.org/1999/xlink" x="0px" y="0px"
	 viewBox="0 0 64 64" style="enable-background:new 0 0 64 64;" xml:space="preserve">
<style type="text/css">
	.st0{fill:none;stroke:#721A12;stroke-width:0.75;stroke-linecap:round;stroke-linejoin:round;stroke-miterlimit:10;}
</style>
<g>
	<path class="st0" d="M55.6,39.3l0,8.6l0,3.8c0,0.8-0.5,1.4-1.1,1.4L5.8,53.1c-0.6,0-1.1-0.6-1.1-1.4l0-4.2l0-35.1
		c0-0.8,0.5-1.4,1.1-1.4l48.6,0.1c0.6,0,1.1,0.6,1.1,1.4l0,9.8"/>
	<path class="st0" d="M4.6,49.8l0-37.5c0-0.8,0.5-1.4,1.2-1.4L58.2,11c0.7,0,1.2,0.6,1.2,1.4l0,9.4l0,17.4l0,10.7
		c0,0.8-0.5,1.4-1.2,1.4l-2.5,0"/>
	<path class="st0" d="M58.9,39.3l-18.7,0c-3.4,0-6.2-2.5-6.2-5.6l0-5.6c0-3.1,2.8-5.6,6.2-5.6l18.7,0"/>
	
		<ellipse transform="matrix(8.472427e-02 -0.9964 0.9964 8.472427e-02 5.0991 67.4239)" class="st0" cx="39.2" cy="30.9" rx="2.9" ry="2.9"/>
</g>
</svg>
