<?xml version="1.0" encoding="utf-8"?>
<!-- Generator: Adobe Illustrator 21.1.0, SVG Export Plug-In . SVG Version: 6.00 Build 0)  -->
<svg version="1.1" id="Слой_1" xmlns="http://www.w3.org/2000/svg" xmlns:xlink="http://www.w3.org/1999/xlink" x="0px" y="0px"
	 viewBox="0 0 32 32" style="enable-background:new 0 0 32 32;" xml:space="preserve">
<style type="text/css">
	.st0{fill:#786968;}
	.st1{fill:#921A15;}
	.st2{fill-rule:evenodd;clip-rule:evenodd;fill:#FFFFFF;}
	.st3{fill:#721A12;}
	.st4{fill:#FFFFFF;}
	.st5{fill:none;stroke:#721A12;stroke-width:0.25;stroke-miterlimit:10;}
	.st6{fill:none;stroke:#941915;stroke-width:0.25;stroke-miterlimit:10;}
	.st7{fill:#941915;}
</style>
<g>
	<polygon class="st0" points="63.7,73.8 57.5,76.4 44.7,62.2 51,59.6 	"/>
	<polygon class="st0" points="56.8,76.6 53.1,82 40.5,67.7 44.2,62.3 	"/>
	<polygon class="st0" points="68,68.3 64.3,73.7 51.7,59.4 55.4,54 	"/>
	<g>
		<path class="st1" d="M58.2,56.1c0-1-0.7-1.8-1.6-1.8S55,55.1,55,56.1c0,1,1.3,2.7,1.6,2.7C56.9,58.9,58.2,57.1,58.2,56.1z"/>
		<g>
			<path class="st2" d="M56.2,57.1c-0.1-0.1-0.2-0.6-0.2-1c0,0.1,0,0.1,0,0.1c0.2,0.4,1.1,0.6,1.5,0.5c-0.2,0.3-0.6,0.4-1,0.4
				C56.4,57.2,56.3,57.2,56.2,57.1"/>
			<g>
				<path class="st2" d="M57.6,56.6c-0.3,0-0.7,0-1,0c0.5-0.1,0.9-0.9,1-1.3c0.1,0.2,0.2,0.4,0.2,0.7C57.8,56.2,57.8,56.4,57.6,56.6
					"/>
				<path class="st2" d="M56.5,54.7l-0.2,0.4l0,0l0,0l0,0l0,0l0,0l0,0l0,0l0,0l0,0l0,0l0,0l0,0l0,0l0,0h0l0,0l0,0l0,0l0,0l0,0l0,0
					l0,0h0l0,0l0,0l0,0l0,0l0,0l0,0l0,0l0,0l0,0l0,0l0,0h0l0,0h0l0,0h0l0,0h0l0,0l0,0l0,0h0l0,0l0,0l0,0l0,0l0,0l0,0h0l0,0h0l0,0h0
					l0,0l0,0l0,0h0l0,0h0l0,0l0,0l0,0l0,0l0,0l0,0l0,0l0,0l0,0h0l0,0l0,0l0,0l0,0l0,0l0,0l0,0l0,0l0,0l0,0l0,0l0,0l0,0l0,0
					c-0.2,0.4-0.3,0.9-0.2,1.4c-0.3-0.2-0.6-0.6-0.6-1.1C55.3,55.3,55.8,54.7,56.5,54.7"/>
				<path class="st2" d="M57.5,55.1c0,0.4-0.1,0.8-0.3,1.1c0-0.1,0-0.1,0-0.2c0-0.1,0-0.2-0.1-0.4c-0.1-0.2-0.2-0.3-0.2-0.5
					l-0.2-0.4C57,54.7,57.3,54.9,57.5,55.1"/>
			</g>
		</g>
	</g>
	<g>
		<path class="st1" d="M64.3,61.7c0-1.4-1-2.5-2.2-2.5c-1.2,0-2.2,1.1-2.2,2.5c0,1.4,1.7,3.7,2.2,3.7C62.5,65.4,64.3,63,64.3,61.7z"
			/>
		<g>
			<path class="st2" d="M61.5,63c-0.2-0.2-0.3-0.8-0.3-1.4c0,0.1,0,0.1,0.1,0.2c0.2,0.6,1.5,0.8,2.1,0.7c-0.3,0.4-0.8,0.6-1.3,0.6
				C61.9,63.1,61.7,63.1,61.5,63"/>
			<g>
				<path class="st2" d="M63.5,62.3c-0.4,0.1-1,0.1-1.3,0c0.7-0.1,1.2-1.3,1.3-1.8c0.2,0.3,0.2,0.6,0.2,0.9
					C63.8,61.7,63.7,62.1,63.5,62.3"/>
				<path class="st2" d="M61.9,59.7l-0.2,0.5l0,0l0,0l0,0l0,0l0,0l0,0l0,0l0,0l0,0l0,0l0,0l0,0l0,0l0,0h0l0,0l0,0l0,0l0,0l0,0l0,0
					l0,0h0l0,0l0,0l0,0l0,0l0,0l0,0l0,0l0,0l0,0l0,0l0,0h0l0,0h0l0,0h0l0,0h0l0,0l0,0l0,0h0l0,0l0,0l0,0l0,0l0,0l0,0h0l0,0h0l0,0h0
					l0,0l0,0l0,0h0l0,0h0l0,0l0,0l0,0l0,0l0,0l0,0l0,0l0,0l0,0h0l0,0l0,0l0,0l0,0l0,0l0,0l0,0l0,0l0,0l0,0l0,0l0,0l0,0l0,0
					c-0.2,0.6-0.4,1.3-0.2,1.9c-0.5-0.3-0.8-0.8-0.8-1.4C60.3,60.5,61.1,59.8,61.9,59.7"/>
				<path class="st2" d="M63.3,60.2c0,0.5-0.2,1.1-0.4,1.5c0-0.1,0-0.2,0-0.3c0-0.2-0.1-0.3-0.2-0.5c-0.1-0.2-0.2-0.4-0.3-0.7
					l-0.2-0.5C62.6,59.7,63,59.9,63.3,60.2"/>
			</g>
		</g>
	</g>
	<g>
		<path class="st1" d="M61.5,69.5c0-2.1-1.5-3.8-3.3-3.8c-1.8,0-3.3,1.7-3.3,3.8s2.6,5.7,3.3,5.7S61.5,71.6,61.5,69.5z"/>
		<g>
			<path class="st2" d="M57.3,71.6c-0.3-0.3-0.5-1.2-0.4-2.1c0,0.1,0,0.2,0.1,0.3c0.4,0.9,2.3,1.3,3.1,1c-0.5,0.6-1.2,0.9-2,0.9
				C57.8,71.7,57.6,71.7,57.3,71.6"/>
			<g>
				<path class="st2" d="M60.3,70.5c-0.6,0.1-1.5,0.1-2,0c1.1-0.2,1.8-1.9,2-2.8c0.2,0.4,0.4,0.9,0.4,1.4
					C60.7,69.6,60.6,70.1,60.3,70.5"/>
				<path class="st2" d="M57.9,66.5l-0.4,0.8l0,0l0,0l0,0l0,0l0,0l0,0l0,0l0,0l0,0l0,0l0,0l0,0l0,0l0,0h0l0,0l0,0l0,0l0,0l0,0l0,0
					l0,0h0l0,0l0,0l0,0l0,0l0,0l0,0l0,0l0,0l0,0l0,0l0,0h0l0,0h0l0,0h0l0,0h0l0,0l0,0l0,0h0l0,0l0,0l0,0l0,0l0,0l0,0h0l0,0h0l0,0h0
					l0,0l0,0l0,0h0l0,0h0l0,0l0,0l0,0l0,0l0,0l0,0l0,0l0,0l0,0h0l0,0l0,0l0,0l0,0l0,0l0,0l0,0l0,0l0,0l0,0l0,0l0,0l0,0l0,0
					c-0.3,0.9-0.6,2-0.4,2.9c-0.7-0.5-1.2-1.3-1.2-2.2C55.5,67.7,56.6,66.6,57.9,66.5"/>
				<path class="st2" d="M60,67.3c0,0.8-0.2,1.7-0.6,2.3c0-0.1,0-0.3,0-0.4c0-0.2-0.1-0.5-0.2-0.8c-0.1-0.3-0.3-0.7-0.5-1.1
					l-0.4-0.8C59,66.5,59.5,66.8,60,67.3"/>
			</g>
		</g>
	</g>
	<g>
		<path class="st1" d="M49.1,65.9c0-1.7-1.2-3.1-2.8-3.1c-1.5,0-2.8,1.4-2.8,3.1c0,1.7,2.2,4.7,2.8,4.7
			C46.9,70.6,49.1,67.6,49.1,65.9z"/>
		<g>
			<path class="st2" d="M45.7,67.6c-0.2-0.2-0.4-1-0.3-1.7c0,0.1,0,0.2,0.1,0.2c0.3,0.8,1.9,1.1,2.6,0.9c-0.4,0.5-1,0.8-1.6,0.8
				C46.1,67.7,45.9,67.7,45.7,67.6"/>
			<g>
				<path class="st2" d="M48.1,66.7c-0.5,0.1-1.2,0.1-1.7,0c0.9-0.1,1.5-1.6,1.7-2.3c0.2,0.3,0.3,0.7,0.3,1.1
					C48.5,66,48.4,66.4,48.1,66.7"/>
				<path class="st2" d="M46.2,63.4L45.9,64l0,0l0,0l0,0l0,0l0,0l0,0l0,0l0,0l0,0l0,0l0,0l0,0l0,0l0,0h0l0,0l0,0l0,0l0,0l0,0l0,0
					l0,0h0l0,0l0,0l0,0l0,0l0,0l0,0l0,0l0,0l0,0l0,0l0,0h0l0,0h0l0,0h0l0,0h0l0,0l0,0l0,0h0l0,0l0,0l0,0l0,0l0,0l0,0h0l0,0h0l0,0h0
					l0,0l0,0l0,0h0l0,0h0l0,0l0,0l0,0l0,0l0,0l0,0l0,0l0,0l0,0h0l0,0l0,0l0,0l0,0l0,0l0,0l0,0l0,0l0,0l0,0l0,0l0,0l0,0l0,0
					c-0.3,0.7-0.5,1.6-0.3,2.4c-0.6-0.4-1-1.1-1-1.8C44.2,64.4,45.1,63.5,46.2,63.4"/>
				<path class="st2" d="M47.9,64c0,0.6-0.2,1.4-0.5,1.9c0-0.1,0-0.2,0-0.4c0-0.2-0.1-0.4-0.2-0.7c-0.1-0.3-0.3-0.6-0.4-0.9
					l-0.3-0.6C47,63.4,47.5,63.7,47.9,64"/>
			</g>
		</g>
	</g>
</g>
<g>
	<g>
		<path class="st3" d="M105.5,66c-0.6,0-1.1,0.2-1.5,0.5v-2.2c0-0.7-0.6-1.3-1.3-1.3h-2.2c0.3-0.4,0.5-0.9,0.5-1.5
			c0-1.4-1.1-2.5-2.5-2.5S96,60.1,96,61.5c0,0.6,0.2,1.1,0.5,1.5h-3.2c-0.7,0-1.3,0.6-1.3,1.3v1.2c0.4-0.3,0.9-0.5,1.5-0.5
			c1.4,0,2.5,1.1,2.5,2.5c0,1.4-1.1,2.5-2.5,2.5c-0.6,0-1.1-0.2-1.5-0.5v4.2c0,0.7,0.6,1.3,1.3,1.3h4.2c-0.3-0.4-0.5-0.9-0.5-1.5
			c0-1.4,1.1-2.5,2.5-2.5s2.5,1.1,2.5,2.5c0,0.6-0.2,1.1-0.5,1.5h1.2c0.7,0,1.3-0.6,1.3-1.3v-3.2c0.4,0.3,0.9,0.5,1.5,0.5
			c1.4,0,2.5-1.1,2.5-2.5C108,67.1,106.9,66,105.5,66z"/>
		<path class="st4" d="M102.7,75.1h-1.5l0.2-0.2c0.3-0.4,0.5-0.9,0.5-1.4c0-1.3-1.1-2.4-2.4-2.4s-2.4,1.1-2.4,2.4
			c0,0.5,0.2,1,0.5,1.4l0.2,0.2h-4.5c-0.8,0-1.4-0.6-1.4-1.4v-4.5l0.2,0.2c0.4,0.3,0.9,0.5,1.4,0.5c1.3,0,2.4-1.1,2.4-2.4
			s-1.1-2.4-2.4-2.4c-0.5,0-1,0.2-1.4,0.5l-0.2,0.2v-1.5c0-0.8,0.6-1.4,1.4-1.4h3c-0.3-0.4-0.4-0.9-0.4-1.4c0-1.4,1.2-2.6,2.6-2.6
			s2.6,1.2,2.6,2.6c0,0.5-0.1,1-0.4,1.4h2c0.8,0,1.4,0.6,1.4,1.4v2c0.4-0.3,0.9-0.4,1.4-0.4c1.4,0,2.6,1.2,2.6,2.6s-1.2,2.6-2.6,2.6
			c-0.5,0-1-0.1-1.4-0.4v3C104.1,74.5,103.5,75.1,102.7,75.1z M101.7,74.9h1c0.6,0,1.1-0.5,1.1-1.1v-3.5l0.2,0.2
			c0.4,0.3,0.9,0.5,1.4,0.5c1.3,0,2.4-1.1,2.4-2.4s-1.1-2.4-2.4-2.4c-0.5,0-1,0.2-1.4,0.5l-0.2,0.2v-2.5c0-0.6-0.5-1.1-1.1-1.1h-2.5
			l0.2-0.2c0.3-0.4,0.5-0.9,0.5-1.4c0-1.3-1.1-2.4-2.4-2.4s-2.4,1.1-2.4,2.4c0,0.5,0.2,1,0.5,1.4l0.2,0.2h-3.5
			c-0.6,0-1.1,0.5-1.1,1.1v1c0.4-0.3,0.9-0.4,1.4-0.4c1.4,0,2.6,1.2,2.6,2.6s-1.2,2.6-2.6,2.6c-0.5,0-1-0.1-1.4-0.4v4
			c0,0.6,0.5,1.1,1.1,1.1h4c-0.3-0.4-0.4-0.9-0.4-1.4c0-1.4,1.2-2.6,2.6-2.6s2.6,1.2,2.6,2.6C102.1,74,102,74.5,101.7,74.9z"/>
	</g>
	<g>
		<path class="st0" d="M117.5,67c-0.6,0-1.1,0.2-1.5,0.5v-3.2c0-0.7-0.6-1.3-1.3-1.3h-1.2c0.3,0.4,0.5,0.9,0.5,1.5
			c0,1.4-1.1,2.5-2.5,2.5s-2.5-1.1-2.5-2.5c0-0.6,0.2-1.1,0.5-1.5h-4.2c-0.7,0-1.3,0.6-1.3,1.3v2.2c0.4-0.3,0.9-0.5,1.5-0.5
			c1.4,0,2.5,1.1,2.5,2.5c0,1.4-1.1,2.5-2.5,2.5c-0.6,0-1.1-0.2-1.5-0.5v3.2c0,0.7,0.6,1.3,1.3,1.3h3.2c-0.3,0.4-0.5,0.9-0.5,1.5
			c0,1.4,1.1,2.5,2.5,2.5s2.5-1.1,2.5-2.5c0-0.6-0.2-1.1-0.5-1.5h2.2c0.7,0,1.3-0.6,1.3-1.3v-2.2c0.4,0.3,0.9,0.5,1.5,0.5
			c1.4,0,2.5-1.1,2.5-2.5C120,68.1,118.9,67,117.5,67z"/>
		<path class="st4" d="M110.5,79.1c-1.4,0-2.6-1.2-2.6-2.6c0-0.5,0.1-1,0.4-1.4h-3c-0.8,0-1.4-0.6-1.4-1.4v-3.5l0.2,0.2
			c0.4,0.3,0.9,0.5,1.4,0.5c1.3,0,2.4-1.1,2.4-2.4s-1.1-2.4-2.4-2.4c-0.5,0-1,0.2-1.4,0.5l-0.2,0.2v-2.5c0-0.8,0.6-1.4,1.4-1.4h4.5
			l-0.2,0.2c-0.3,0.4-0.5,0.9-0.5,1.4c0,1.3,1.1,2.4,2.4,2.4s2.4-1.1,2.4-2.4c0-0.5-0.2-1-0.5-1.4l-0.2-0.2h1.5
			c0.8,0,1.4,0.6,1.4,1.4v3c0.4-0.3,0.9-0.4,1.4-0.4c1.4,0,2.6,1.2,2.6,2.6s-1.2,2.6-2.6,2.6c-0.5,0-1-0.1-1.4-0.4v2
			c0,0.8-0.6,1.4-1.4,1.4h-2c0.3,0.4,0.4,0.9,0.4,1.4C113.1,77.9,111.9,79.1,110.5,79.1z M104.1,70.7v3c0,0.6,0.5,1.1,1.1,1.1h3.5
			l-0.2,0.2c-0.3,0.4-0.5,0.9-0.5,1.4c0,1.3,1.1,2.4,2.4,2.4s2.4-1.1,2.4-2.4c0-0.5-0.2-1-0.5-1.4l-0.2-0.2h2.5
			c0.6,0,1.1-0.5,1.1-1.1v-2.5l0.2,0.2c0.4,0.3,0.9,0.5,1.4,0.5c1.3,0,2.4-1.1,2.4-2.4s-1.1-2.4-2.4-2.4c-0.5,0-1,0.2-1.4,0.5
			l-0.2,0.2v-3.5c0-0.6-0.5-1.1-1.1-1.1h-1c0.3,0.4,0.4,0.9,0.4,1.4c0,1.4-1.2,2.6-2.6,2.6s-2.6-1.2-2.6-2.6c0-0.5,0.1-1,0.4-1.4h-4
			c-0.6,0-1.1,0.5-1.1,1.1v2c0.4-0.3,0.9-0.4,1.4-0.4c1.4,0,2.6,1.2,2.6,2.6s-1.2,2.6-2.6,2.6C105,71.1,104.5,71,104.1,70.7z"/>
	</g>
</g>
<g>
	<ellipse class="st0" cx="106" cy="12.9" rx="5.5" ry="7.9"/>
	<path class="st0" d="M110.2,19.3L110.2,19.3c-1.2,1.2-2.6,2-4.2,2s-3-0.7-4.1-2h-0.1c-3.7,0-6.8,3.5-6.8,7.9v1.7h22v-1.7
		C117,22.8,113.9,19.3,110.2,19.3z"/>
</g>
<g>
	<path class="st0" d="M-35.4,8.4c-0.1-0.1-0.2-0.1-0.3-0.2c-1.5-0.3-3-0.7-4.5-1c-1-0.2-1.1,1.4-0.1,1.6c1.3,0.3,2.6,0.6,3.9,0.8
		c0.6,3.2,1.3,6.5,1.9,9.7c0.2,1,1.7,0.7,1.5-0.3c-0.7-3.4-1.3-6.8-2-10.2C-35.1,8.7-35.2,8.5-35.4,8.4z"/>
</g>
<g>
	<rect x="-30.2" y="23.3" class="st0" width="13.4" height="1.5"/>
</g>
<rect x="-28.9" y="13.1" class="st5" width="11.7" height="9.5"/>
<rect x="-28.9" y="8.1" class="st6" width="6.5" height="3.7"/>
<rect x="-21.5" y="9.6" transform="matrix(0.9893 -0.1458 0.1458 0.9893 -1.8139 -2.7744)" class="st6" width="3.3" height="2.7"/>
<g>
	<path class="st0" d="M-33.2,27c-2.2,0-4-1.8-4-4s1.8-4,4-4s4,1.8,4,4S-31,27-33.2,27z M-33.2,20.1c-1.6,0-3,1.3-3,3s1.3,3,3,3
		c1.6,0,3-1.3,3-3S-31.6,20.1-33.2,20.1z"/>
</g>
<g>
	<path class="st0" d="M-14.1,27c-1.7,0-3.1-1.4-3.1-3.1c0-1.7,1.4-3.1,3.1-3.1s3.1,1.4,3.1,3.1C-11,25.6-12.4,27-14.1,27z
		 M-14.1,21.9c-1.1,0-2,0.9-2,2c0,1.1,0.9,2,2,2s2-0.9,2-2C-12,22.8-12.9,21.9-14.1,21.9z"/>
</g>
<g>
	<g>
		<g>
			<path class="st1" d="M4.7,9.8C4.6,9.7,4.5,9.6,4.5,9.6c-1-0.4-2.1-0.8-3.1-1.1c-0.7-0.2-0.6,1.3,0.1,1.6c0.9,0.3,1.8,0.7,2.7,1
				c0.8,3.2,1.5,6.4,2.3,9.6c0.2,1,1.2,0.8,1-0.2C6.6,17,5.8,13.7,5,10.3C4.9,10.1,4.8,9.9,4.7,9.8z"/>
		</g>
	</g>
	<g>
		<g>
			<rect x="10.6" y="23.6" class="st1" width="16" height="1.1"/>
		</g>
	</g>
	<g>
		<path class="st3" d="M25.6,22.5H12.1v-8.8h13.4V22.5z M12.4,22.2h12.9V14H12.4V22.2z"/>
	</g>
	<g>
		<path class="st7" d="M20,13.4h-7.9V7H20V13.4z M12.4,13.1h7.3V7.3h-7.3V13.1z"/>
	</g>
	<g>
		<path class="st7" d="M22,13.6l-0.4-2.9l3.6-0.5l0.4,2.9L22,13.6z M21.8,11l0.4,2.3l3-0.4l-0.4-2.3L21.8,11z"/>
	</g>
	<g>
		<g>
			<path class="st1" d="M7.7,27c-1.8,0-3.3-1.4-3.3-3.2s1.5-3.2,3.3-3.2s3.3,1.4,3.3,3.2S9.5,27,7.7,27z M7.7,21.5
				c-1.4,0-2.5,1.1-2.5,2.3s1.1,2.3,2.5,2.3s2.5-1.1,2.5-2.3S9,21.5,7.7,21.5z"/>
		</g>
	</g>
	<g>
		<g>
			<path class="st1" d="M28.7,27c-1.4,0-2.5-1.1-2.5-2.5c0-1.4,1.1-2.5,2.5-2.5s2.5,1.1,2.5,2.5C31.2,25.9,30,27,28.7,27z
				 M28.7,22.9c-0.9,0-1.6,0.7-1.6,1.6s0.7,1.6,1.6,1.6s1.6-0.7,1.6-1.6S29.6,22.9,28.7,22.9z"/>
		</g>
	</g>
</g>
<g>
	<g>
		<path class="st1" d="M-23.4,72.9c-3.6,0-6.5-2.9-6.5-6.5c0-3.6,2.9-6.5,6.5-6.5s6.5,2.9,6.5,6.5C-17,70-19.9,72.9-23.4,72.9z
			 M-23.4,60.9c-3.1,0-5.5,2.5-5.5,5.5c0,3.1,2.5,5.5,5.5,5.5c3.1,0,5.5-2.5,5.5-5.5C-17.9,63.4-20.4,60.9-23.4,60.9z"/>
	</g>
	<g>
		<path class="st1" d="M-21,69.9l-2.5-1.3l-2.5,1.3l0.5-2.7l-2-1.9l2.7-0.4l1.2-2.5l1.2,2.5l2.7,0.4l-2,1.9L-21,69.9z M-23.5,68.1
			l1.9,1l-0.4-2.1l1.5-1.5l-2.1-0.3l-1-1.9l-1,1.9l-2.1,0.3L-25,67l-0.4,2.1L-23.5,68.1z"/>
	</g>
	<g>
		<g>
			<path class="st1" d="M-20,71.4c-0.1,0-0.1-0.1-0.2-0.1c1,2.3,2.1,4.6,3.1,6.9c0.1,0.2,0.4,0.1,0.3-0.1c-1-2.3-2.1-4.6-3.1-6.9"/>
			<path class="st1" d="M-16.9,78.4C-16.9,78.4-16.9,78.4-16.9,78.4c-0.1,0-0.2-0.1-0.3-0.2l-3.2-7.1l0.5,0.2l0,0l0.2-0.1l3.1,6.9
				c0,0.1,0,0.2,0,0.2C-16.7,78.4-16.8,78.4-16.9,78.4z M-20,71.5l3,6.7c0,0,0,0,0.1,0c0,0,0.1,0,0.1,0l-3.1-6.8L-20,71.5z"/>
		</g>
		<g>
			<path class="st1" d="M-23.7,72.4c1,2.3,2.1,4.6,3.1,6.9c0.1,0.1,0.2,0.1,0.3,0c0.5-0.6,0.9-1.2,1.4-1.7c-0.1,0-0.1,0-0.2,0.1
				c0.7,0.2,1.4,0.5,2.1,0.7c0.2,0.1,0.3-0.2,0.1-0.3c-0.7-0.2-1.4-0.5-2.1-0.7c-0.1,0-0.2,0-0.2,0.1c-0.5,0.6-0.9,1.2-1.4,1.7
				c0.1,0,0.2,0,0.3,0c-1-2.3-2.1-4.6-3.1-6.9c0,0.1-0.1,0.1-0.1,0.2"/>
			<path class="st1" d="M-20.4,79.5C-20.4,79.5-20.4,79.5-20.4,79.5c-0.1,0-0.2-0.1-0.3-0.2l0-0.1l-0.1,0l0-0.1l-3.1-6.7l0.2-0.1
				l0,0.1l0.2-0.3l3,6.6l1.1-1.3c0.1-0.1,0.2-0.1,0.3-0.1l0.3,0.1l0.1,0l0,0l1.7,0.6c0.2,0.1,0.2,0.2,0.2,0.3c0,0.1-0.2,0.2-0.4,0.2
				l-1.9-0.6l-1.2,1.5l0,0.1l-0.1,0l0,0.1C-20.2,79.4-20.3,79.5-20.4,79.5z M-20.2,78.9l0,0.1l1-1.3l-0.1,0L-20.2,78.9z M-23.5,72.5
				l3,6.5l0.1-0.1l-2.9-6.3l0,0L-23.5,72.5z M-18.7,77.6l1.8,0.6c0,0,0.1,0,0.1,0c0,0,0,0,0,0L-18.7,77.6L-18.7,77.6z M-19,77.4
				C-19,77.4-19,77.5-19,77.4L-19,77.4L-19,77.4L-19,77.4C-19,77.4-19,77.4-19,77.4z"/>
		</g>
	</g>
	<g>
		<g>
			<path class="st1" d="M-27,72c0.1,0,0.1-0.1,0.2-0.1c-1,2.3-2,4.6-3.1,6.9c-0.1,0.2-0.4,0.1-0.3-0.1c1-2.3,2-4.6,3.1-6.9"/>
			<path class="st1" d="M-30,78.9c0,0-0.1,0-0.1,0c-0.1-0.1-0.2-0.2-0.1-0.3l3.1-6.9l0.2,0.1l0,0l0.5-0.2l-3.2,7.1
				C-29.8,78.9-29.9,78.9-30,78.9z M-30.1,78.7C-30.1,78.7-30.1,78.7-30.1,78.7c0.1,0,0.1,0,0.1,0l3-6.7l-0.1-0.1L-30.1,78.7z"/>
		</g>
		<g>
			<path class="st1" d="M-23.4,72.9c-1,2.3-2,4.6-3.1,6.9c-0.1,0.1-0.2,0.1-0.3,0c-0.5-0.6-0.9-1.2-1.4-1.7c0.1,0,0.1,0,0.2,0.1
				c-0.7,0.2-1.4,0.5-2,0.7c-0.2,0.1-0.3-0.2-0.1-0.3c0.7-0.2,1.4-0.5,2-0.7c0.1,0,0.2,0,0.2,0.1c0.5,0.6,0.9,1.2,1.4,1.7
				c-0.1,0-0.2,0-0.3,0c1-2.3,2-4.6,3.1-6.9c0,0.1,0.1,0.1,0.1,0.2"/>
			<path class="st1" d="M-26.6,80c-0.1,0-0.2,0-0.2-0.1l0-0.1l-0.1,0l0-0.1l-1.2-1.5l-1.9,0.6c-0.1,0-0.2,0-0.3,0
				c-0.1-0.1-0.1-0.2-0.1-0.2c0-0.1,0.1-0.2,0.2-0.2l1.7-0.6l0,0l0.1,0l0.3-0.1c0.1,0,0.3,0,0.3,0.1l1.1,1.3l2.9-6.6l0.2,0.3l0-0.1
				l0.2,0.1l-3,6.7l0,0.1l-0.1,0l0,0.1C-26.4,79.9-26.5,80-26.6,80C-26.6,80-26.6,80-26.6,80z M-27.9,78.2l1,1.3l0-0.1L-27.9,78.2
				L-27.9,78.2z M-26.5,79.4L-26.5,79.4l3-6.4l-0.2,0.1l0,0L-26.5,79.4z M-28.3,78.1l-1.8,0.6c0,0,0,0,0,0c0,0,0,0,0,0c0,0,0,0,0,0
				L-28.3,78.1L-28.3,78.1z M-28,78l0.1,0l0,0C-27.9,78-28,78-28,78L-28,78z"/>
		</g>
	</g>
</g>
<g>
	<g>
		<path class="st1" d="M16.9,72.8c-4.4,0-8-3.7-8-8.3s3.6-8.3,8-8.3s8,3.7,8,8.3S21.3,72.8,16.9,72.8z M16.9,56.7
			c-4.1,0-7.5,3.5-7.5,7.8s3.4,7.8,7.5,7.8s7.5-3.5,7.5-7.8S21,56.7,16.9,56.7z"/>
	</g>
	<g>
		<path class="st1" d="M13,79C13,79,13,79,13,79c0,0-0.1,0-0.1-0.1l-1-1.8L9.4,78c-0.1,0-0.1,0-0.1,0c0,0,0-0.1,0-0.1l3.9-6.6
			l0.2,0.1l-3.7,6.3l2.3-0.7c0.1,0,0.1,0,0.2,0.1l0.9,1.7l3.8-6.3l0.2,0.1l-3.9,6.5C13.1,79,13,79,13,79z"/>
	</g>
	<g>
		<path class="st1" d="M20.9,79c0,0-0.1,0-0.1-0.1l-3.9-6.5l0.2-0.1l3.8,6.3l0.9-1.7c0-0.1,0.1-0.1,0.2-0.1l2.3,0.7l-3.7-6.3
			l0.2-0.1l3.9,6.6c0,0,0,0.1,0,0.1c0,0-0.1,0.1-0.1,0L22,77.2l-1,1.8C21,79,21,79,20.9,79C20.9,79,20.9,79,20.9,79z"/>
	</g>
	<g>
		<path class="st1" d="M14.1,68.7l0.5-3.1l-2.3-2.2l3.1-0.5l1.4-2.8l1.4,2.8l3.1,0.5l-2.3,2.2l0.5,3.1l-2.8-1.5L14.1,68.7z
			 M16.9,66.9l2.5,1.3l-0.5-2.7l2-1.9l-2.8-0.4l-1.2-2.5l-1.2,2.5l-0.1,0l-2.7,0.4l2,1.9l-0.5,2.7L16.9,66.9z"/>
	</g>
</g>
</svg>
