<svg id="Слой_1" data-name="Слой 1" xmlns="http://www.w3.org/2000/svg" viewBox="0 0 32 32"><defs><style>.cls-1{fill:#786968;}</style></defs><title>icon</title><path class="cls-1" d="M23.38,30.5H8.13A7.63,7.63,0,0,1,.5,22.88V9.13A7.63,7.63,0,0,1,8.13,1.5H23.38A7.63,7.63,0,0,1,31,9.13V22.88A7.63,7.63,0,0,1,23.38,30.5ZM8.13,3.5A5.63,5.63,0,0,0,2.5,9.13V22.88A5.63,5.63,0,0,0,8.13,28.5H23.38A5.63,5.63,0,0,0,29,22.88V9.13A5.63,5.63,0,0,0,23.38,3.5Z"/><path class="cls-1" d="M15.5,25.5a9,9,0,1,1,9-9A9,9,0,0,1,15.5,25.5Zm0-16a7,7,0,1,0,7,7A7,7,0,0,0,15.5,9.5Z"/><circle class="cls-1" cx="24.5" cy="7.5" r="1"/><path class="cls-1" d="M24.5,9A1.5,1.5,0,1,1,26,7.5,1.5,1.5,0,0,1,24.5,9Zm0-2a.5.5,0,1,0,.5.5A.5.5,0,0,0,24.5,7Z"/></svg>