<?xml version="1.0" encoding="utf-8"?>
<!-- Generator: Adobe Illustrator 17.0.0, SVG Export Plug-In . SVG Version: 6.00 Build 0)  -->
<svg version="1.2" baseProfile="tiny" id="Слой_1"
	 xmlns="http://www.w3.org/2000/svg" xmlns:xlink="http://www.w3.org/1999/xlink" x="0px" y="0px" width="3002.667px"
	 height="1480.333px" viewBox="0 0 3002.667 1480.333" xml:space="preserve">
<g>
	<g>
		<path fill="#B81D22" d="M379.299,1119.025c-44.352-42.459-77.137-188.232-64.293-321.303c2.544,16.135,6.722,31.164,12.017,44.625
			c55.873,142.041,350.391,197.505,478.574,157.88c-73.198,84.796-181.47,138.473-302.281,138.473
			C460.018,1138.698,418.338,1131.776,379.299,1119.025"/>
		<g>
			<path fill="#911B1D" d="M838.488,956.758c-95.249,15.306-223.699,14.596-305.83,1.875
				C702.276,932.427,812.23,667.068,844.4,532.452c36.849,60.452,58.086,131.479,58.086,207.464
				C902.485,819.871,878.959,894.323,838.488,956.758"/>
			<path fill="#ED1C24" d="M477.005,341.633l-53.619,115.432l-1.236,2.663l-1.244,2.662l-1.248,2.658l-1.244,2.656l-1.253,2.652
				l-1.249,2.651l-1.255,2.65l-1.253,2.645l-1.255,2.64l-1.26,2.637l-1.254,2.634l-1.26,2.632l-1.26,2.628l-1.254,2.627h-0.006
				l-1.254,2.621l-1.26,2.616l-1.255,2.615l-1.26,2.608l-1.253,2.603l-1.255,2.599l-1.249,2.597h-0.005l-1.249,2.592l-1.248,2.585
				l-1.242,2.586l-1.243,2.579l-1.242,2.574l-1.236,2.568l-1.231,2.563l-1.231,2.555l-1.224,2.557l-1.225,2.544l-1.213,2.544h-0.006
				l-1.207,2.532h-0.007l-1.2,2.533h-0.005l-1.196,2.526h-0.005l-1.196,2.521l-1.189,2.509l-1.183,2.508h-0.005l-1.178,2.504
				l-1.171,2.49l-1.165,2.491l-1.16,2.48l-1.154,2.473l-1.143,2.473h-0.006l-1.13,2.462h-0.005l-1.125,2.449h-0.005l-1.118,2.449
				l-1.113,2.438l-1.101,2.438h-0.006l-1.088,2.426h-0.007l-1.083,2.414l-1.076,2.415l-1.066,2.402l-1.059,2.396l-1.046,2.385
				l-1.036,2.378l-1.024,2.372l-1.017,2.367l-1.001,2.355h-0.005l-0.988,2.343l-0.982,2.336l-0.971,2.332l-0.953,2.319l-0.946,2.314
				l-1.853,4.586l-0.715,1.78l-0.196,0.492l-0.9,2.26l-0.887,2.248l-0.561,1.426l-0.315,0.804l-0.863,2.22l-0.852,2.206
				c-51.31,132.515-87.859,299.05-54.416,438.842c-109.906-71.096-182.648-194.741-182.648-335.385
				C104.142,528.298,268.814,355.182,477.005,341.633"/>
			<path fill="#6D1517" d="M789.545,461.727c-5.183,117.805-38.045,264.047-98.818,348.758c4.408-20.384,6.23-42.88,4.284-66.452
				c-3.053-36.862-15.295-76.363-35.313-125.598c-20.016-49.229-48.654-104.563-75.037-161.371l-53.577-115.343
				C632.251,348.674,723.051,393.323,789.545,461.727"/>
		</g>
	</g>
	<path fill="#6D6263" d="M2501.587,739.933v-56.941h-6.687c-40.196,0-99.315,6.644-99.315,58.907
		c0,21.35,16.071,34.038,36.527,34.038C2461.077,775.938,2484.137,762.089,2501.587,739.933 M1672.272,739.933v-56.941h-6.685
		c-40.197,0-99.317,6.644-99.317,58.907c0,21.35,16.072,34.038,36.527,34.038C1631.764,775.938,1654.824,762.089,1672.272,739.933z
		 M2713.26,545.214c24.296-24.873,55.344-39.706,91.235-39.706c62.578,0,94.025,39.538,94.025,99.621v218.362h-64.338V615.698
		c0-32.16-9.526-52.691-44.61-52.691c-30.628,0-58.547,24.438-76.313,47.776v212.708h-63.715V512.969h63.715L2713.26,545.214
		L2713.26,545.214z M2501.587,634.818v-20.363c0-37.408-14.488-52.688-52.068-52.688c-29.485,0-51.79,11.386-73.98,30.326
		l-4.698,4.01l-32.806-44.527l3.74-3.492c31.352-29.262,69.266-42.575,112.093-42.575c71.971,0,111.433,33.417,111.433,107.082
		v133.037c0,23.272,1.855,48.075,7.303,70.775l1.702,7.088h-63.76l-1.249-4.057c-1.935-6.297-3.213-14.957-4.074-23.17
		c-21.849,21.997-52.621,34.688-83.682,34.688c-52.418,0-92.16-33.25-92.16-87.188c0-86.597,95.789-108.947,165.518-108.947
		L2501.587,634.818L2501.587,634.818z M2142.41,830.952c-42.719,0-92.384-13.559-123.963-43.878l-3.522-3.38l33.898-49.308
		l4.879,4.552c24.691,23.049,56.294,33.892,89.952,33.892c31.11,0,65.38-14.992,73.537-47.701c1.016-4.074,1.531-8.252,1.531-12.451
		c0-9.72-2.15-18.795-6.937-27.281c-15.176-26.894-57.564-44.566-84.341-57.702c-54.815-26.889-98.332-56.551-98.332-123.899
		c0-72.5,61.442-113.297,128.837-113.297c40.664,0,82.298,9.336,114.824,34.792l4.106,3.213l-32.31,50.774l-4.992-3.904
		c-22.941-17.951-52.036-26.753-81.005-26.753c-32.675,0-63.258,16.906-63.258,52.691c0,9.322,2.013,18.011,6.768,26.073
		c12.495,21.194,43.686,35.078,65.155,45.191c62.737,29.549,118.93,59.284,118.93,138.862c0,20.987-5.191,41.256-16.227,59.181
		C2243.101,814.212,2191.275,830.952,2142.41,830.952z M1883.947,545.587c17.925-23.009,42.263-40.079,73.206-40.079
		c12.793,0,24.092,1.642,35.835,6.684l4.565,1.959l-16.143,60.732l-6.314-3.158c-7.344-3.671-16.733-4.366-24.782-4.366
		c-31.072,0-53.42,28.046-66.367,53.437v202.695h-63.716V512.969h63.716V545.587z M1672.272,634.818v-20.363
		c0-37.408-14.487-52.688-52.068-52.688c-29.485,0-51.789,11.386-73.978,30.326l-4.697,4.01l-32.808-44.527l3.741-3.492
		c31.353-29.262,69.266-42.575,112.094-42.575c71.969,0,111.433,33.417,111.433,107.082v133.037c0,23.272,1.855,48.075,7.302,70.775
		l1.701,7.088h-63.759l-1.249-4.057c-1.935-6.297-3.214-14.957-4.073-23.17c-21.851,21.997-52.622,34.688-83.682,34.688
		c-52.42,0-92.161-33.25-92.161-87.188c0-86.597,95.789-108.947,165.52-108.947L1672.272,634.818L1672.272,634.818z
		 M1332.368,830.952c-127.33,0-209.656-98.477-209.656-221.47c0-122.789,84.851-218.983,210.9-218.983
		c44.805,0,82.884,7.983,120.639,32.641l4.824,3.15l-33.732,51.366l-4.834-3.308c-26.643-18.229-56.03-25.728-88.141-25.728
		c-91.574,0-139.101,74.643-139.101,159.616c0,86.655,46.007,163.972,140.345,163.972c36.227,0,68.528-10,96.388-33.463l5.064-4.268
		l30.878,49.403l-3.434,3.233C1430.521,817.224,1375.076,830.952,1332.368,830.952z"/>
	<path fill="#6D6263" d="M2456.198,1088.57h17.818l35.221-51.52c4.973-7.045,7.874-12.017,8.84-13.813h0.276
		c0,1.244-0.414,6.354-0.414,12.155v53.177h18.094V996.58h-19.614l-32.735,48.066c-5.388,8.011-8.84,13.951-9.669,15.469h-0.276
		c0.138-1.105,0.553-7.319,0.553-14.365v-49.171h-18.095L2456.198,1088.57L2456.198,1088.57z M2327.192,1089.953
		c19.476,0,29.421-12.156,31.63-42.544l2.487-34.806h25.829v75.968h19.476v-91.989h-62.432l-3.729,45.856
		c-1.657,20.167-4.973,31.354-15.332,32.459L2327.192,1089.953z M2203.435,1088.57h19.614l6.076-17.265h36.742l6.214,17.265h21.271
		l-36.05-91.989h-18.784L2203.435,1088.57z M2234.512,1055.697l7.874-21.962c2.624-7.458,4.144-13.674,4.834-15.884h0.276
		c0.829,2.072,2.071,8.01,4.971,15.884l7.873,21.962H2234.512z M2058.405,1088.57h17.542l5.939-47.376
		c0.691-6.078,1.105-11.465,1.244-13.536h0.276c0.553,1.934,1.933,7.458,3.73,13.26l15.608,47.652h19.199l15.608-47.791
		c1.934-6.078,3.314-11.05,3.729-13.121h0.277c0.138,1.795,0.69,6.63,1.519,13.397l5.939,47.514h19.89l-12.708-91.989h-18.785
		l-19.06,56.768c-2.211,6.63-4.144,13.398-4.834,15.885h-0.277c-0.828-2.624-2.487-9.255-4.696-15.885l-18.508-56.768h-18.924
		L2058.405,1088.57z M1973.874,1090.227c31.079,0,47.653-22.515,47.653-47.652c0-25.552-15.469-47.653-46.823-47.653
		c-13.26,0-23.343,5.111-28.177,9.117l8.01,13.674c4.559-3.454,10.774-6.491,19.752-6.491c15.332,0,24.033,10.635,25.83,23.757
		h-37.155v15.193h37.292c-1.795,13.399-11.187,23.896-26.105,23.896c-8.979,0-15.608-2.624-20.166-5.939l-8.84,14.227
		C1952.051,1087.327,1961.03,1090.227,1973.874,1090.227z M1864.896,1074.48c-18.37,0-26.795-15.054-26.795-32.32
		c0-17.128,8.702-31.492,27.21-31.492c18.37,0,26.38,14.917,26.38,32.044C1891.692,1059.841,1883.404,1074.48,1864.896,1074.48z
		 M1865.311,1090.227c30.801,0,46.961-23.066,46.961-48.066c0-24.724-16.575-47.239-47.376-47.239s-47.514,22.791-47.514,47.791
		C1817.382,1067.577,1834.508,1090.227,1865.311,1090.227z M1739.618,1088.57h19.614v-75.968h25.276V996.58h-70.305v16.022h25.415
		V1088.57z M1634.506,1034.427v-22.929h9.393c9.669,0,14.641,3.454,14.641,11.051c0,8.148-4.559,11.879-15.056,11.879h-8.978
		V1034.427z M1634.506,1073.652v-25.277h11.05c11.326,0,16.298,4.421,16.298,12.984c0,8.84-5.939,12.293-17.126,12.293H1634.506z
		 M1615.308,1088.57h30.249c20.995,0,36.05-6.768,36.05-25.553c0-13.121-9.254-20.442-20.166-22.099v-0.277
		c9.945-2.624,16.298-9.254,16.298-21.132c0-17.403-14.78-22.928-31.768-22.928h-30.664L1615.308,1088.57L1615.308,1088.57z
		 M1485.197,1088.57h19.614l6.077-17.265h36.742l6.214,17.265h21.271l-36.051-91.989h-18.784L1485.197,1088.57z M1516.275,1055.697
		l7.874-21.962c2.624-7.458,4.144-13.674,4.834-15.884h0.277c0.829,2.072,2.071,8.01,4.971,15.884l7.874,21.962H1516.275z"/>
	<rect x="1252.314" y="906.123" fill="#6D6263" width="1516.606" height="12.793"/>
</g>
</svg>
