<?xml version="1.0" encoding="utf-8"?>
<!-- Generator: Adobe Illustrator 21.1.0, SVG Export Plug-In . SVG Version: 6.00 Build 0)  -->
<svg version="1.1" id="Слой_1" xmlns="http://www.w3.org/2000/svg" xmlns:xlink="http://www.w3.org/1999/xlink" x="0px" y="0px"
	 viewBox="0 0 502 251" style="enable-background:new 0 0 502 251;" xml:space="preserve">
<style type="text/css">
	.st0{fill-rule:evenodd;clip-rule:evenodd;fill:#931A15;}
	.st1{fill-rule:evenodd;clip-rule:evenodd;fill:#E30613;}
	.st2{fill-rule:evenodd;clip-rule:evenodd;fill:#B71615;}
	.st3{fill-rule:evenodd;clip-rule:evenodd;fill:#721A13;}
	.st4{fill-rule:evenodd;clip-rule:evenodd;fill:#786868;}
	.st5{fill:#786868;}
	.st6{fill-rule:evenodd;clip-rule:evenodd;fill:#FFFFFF;}
	.st7{fill:#FFFFFF;}
</style>
<path class="st0" d="M138.6-140.6c-16.4,2.6-38.6,2.5-52.8,0.3c29.3-4.5,48.3-50.3,53.8-73.6c6.4,10.4,10,22.7,10,35.8
	C149.6-164.2,145.6-151.3,138.6-140.6"/>
<path class="st1" d="M76.2-246.7l-9.3,19.9l-0.2,0.5l-0.2,0.5l-0.2,0.5l-0.2,0.5l-0.2,0.5l-0.2,0.5l-0.2,0.5l-0.2,0.5l-0.2,0.5
	l-0.2,0.5l-0.2,0.5l-0.2,0.5l-0.2,0.5l-0.2,0.5h0l-0.2,0.5l-0.2,0.5l-0.2,0.5l-0.2,0.5l-0.2,0.4l-0.2,0.4l-0.2,0.4h0l-0.2,0.4
	l-0.2,0.4l-0.2,0.4l-0.2,0.4l-0.2,0.4l-0.2,0.4l-0.2,0.4l-0.2,0.4l-0.2,0.4l-0.2,0.4l-0.2,0.4h0l-0.2,0.4h0l-0.2,0.4h0l-0.2,0.4h0
	l-0.2,0.4l-0.2,0.4l-0.2,0.4h0l-0.2,0.4l-0.2,0.4l-0.2,0.4l-0.2,0.4l-0.2,0.4l-0.2,0.4h0l-0.2,0.4h0l-0.2,0.4h0l-0.2,0.4l-0.2,0.4
	l-0.2,0.4h0l-0.2,0.4h0l-0.2,0.4l-0.2,0.4l-0.2,0.4l-0.2,0.4l-0.2,0.4l-0.2,0.4l-0.2,0.4l-0.2,0.4l-0.2,0.4h0l-0.2,0.4l-0.2,0.4
	l-0.2,0.4l-0.2,0.4L54-199l-0.3,0.8l-0.1,0.3l0,0.1l-0.2,0.4l-0.2,0.4l-0.1,0.2l-0.1,0.1l-0.1,0.4l-0.1,0.4
	c-8.9,22.9-15.2,51.6-9.4,75.7c-19-12.3-31.5-33.6-31.5-57.9C11.8-214.5,40.2-244.4,76.2-246.7"/>
<path class="st2" d="M59.3-112.5c-7.7-7.3-13.3-32.5-11.1-55.5c0.4,2.8,1.2,5.4,2.1,7.7c9.6,24.5,60.5,34.1,82.6,27.2
	c-12.6,14.6-31.3,23.9-52.2,23.9C73.2-109.1,66.1-110.3,59.3-112.5"/>
<path class="st3" d="M130.1-226c-0.9,20.3-6.6,45.6-17.1,60.2c0.8-3.5,1.1-7.4,0.7-11.5c-0.5-6.4-2.6-13.2-6.1-21.7
	c-3.5-8.5-8.4-18-13-27.9l-9.2-19.9C103-245.5,118.6-237.8,130.1-226"/>
<path class="st4" d="M425.6-178v-9.8h-1.2c-6.9,0-17.1,1.1-17.1,10.2c0,3.7,2.8,5.9,6.3,5.9C418.6-171.8,422.6-174.2,425.6-178
	 M282.5-178v-9.8h-1.2c-6.9,0-17.1,1.1-17.1,10.2c0,3.7,2.8,5.9,6.3,5.9C275.5-171.8,279.5-174.2,282.5-178z M462.1-211.6
	c4.2-4.3,9.6-6.9,15.7-6.9c10.8,0,16.2,6.8,16.2,17.2v37.7H483v-35.9c0-5.6-1.6-9.1-7.7-9.1c-5.3,0-10.1,4.2-13.2,8.2v36.7h-11
	v-53.6h11V-211.6z M425.6-196.1v-3.5c0-6.5-2.5-9.1-9-9.1c-5.1,0-8.9,2-12.8,5.2l-0.8,0.7l-5.7-7.7l0.6-0.6c5.4-5.1,12-7.3,19.3-7.3
	c12.4,0,19.2,5.8,19.2,18.5v23c0,4,0.3,8.3,1.3,12.2l0.3,1.2h-11l-0.2-0.7c-0.3-1.1-0.6-2.6-0.7-4c-3.8,3.8-9.1,6-14.4,6
	c-9,0-15.9-5.7-15.9-15c0-14.9,16.5-18.8,28.6-18.8H425.6z M363.6-162.3c-7.4,0-15.9-2.3-21.4-7.6l-0.6-0.6l5.9-8.5l0.8,0.8
	c4.3,4,9.7,5.8,15.5,5.8c5.4,0,11.3-2.6,12.7-8.2c0.2-0.7,0.3-1.4,0.3-2.1c0-1.7-0.4-3.2-1.2-4.7c-2.6-4.6-9.9-7.7-14.6-10
	c-9.5-4.6-17-9.8-17-21.4c0-12.5,10.6-19.6,22.2-19.6c7,0,14.2,1.6,19.8,6l0.7,0.6l-5.6,8.8l-0.9-0.7c-4-3.1-9-4.6-14-4.6
	c-5.6,0-10.9,2.9-10.9,9.1c0,1.6,0.3,3.1,1.2,4.5c2.2,3.7,7.5,6.1,11.2,7.8c10.8,5.1,20.5,10.2,20.5,24c0,3.6-0.9,7.1-2.8,10.2
	C381-165.2,372.1-162.3,363.6-162.3z M319-211.5c3.1-4,7.3-6.9,12.6-6.9c2.2,0,4.2,0.3,6.2,1.2l0.8,0.3l-2.8,10.5l-1.1-0.5
	c-1.3-0.6-2.9-0.8-4.3-0.8c-5.4,0-9.2,4.8-11.5,9.2v35h-11v-53.6h11V-211.5z M282.5-196.1v-3.5c0-6.5-2.5-9.1-9-9.1
	c-5.1,0-8.9,2-12.8,5.2l-0.8,0.7l-5.7-7.7l0.6-0.6c5.4-5.1,12-7.3,19.3-7.3c12.4,0,19.2,5.8,19.2,18.5v23c0,4,0.3,8.3,1.3,12.2
	l0.3,1.2h-11l-0.2-0.7c-0.3-1.1-0.6-2.6-0.7-4c-3.8,3.8-9.1,6-14.4,6c-9,0-15.9-5.7-15.9-15c0-14.9,16.5-18.8,28.6-18.8H282.5z
	 M223.8-162.3c-22,0-36.2-17-36.2-38.2c0-21.2,14.6-37.8,36.4-37.8c7.7,0,14.3,1.4,20.8,5.6l0.8,0.5l-5.8,8.9l-0.8-0.6
	c-4.6-3.1-9.7-4.4-15.2-4.4c-15.8,0-24,12.9-24,27.5c0,15,7.9,28.3,24.2,28.3c6.3,0,11.8-1.7,16.6-5.8l0.9-0.7l5.3,8.5l-0.6,0.6
	C240.8-164.6,231.2-162.3,223.8-162.3z"/>
<path class="st5" d="M417.8-117.8h3.1l6.1-8.9c0.9-1.2,1.4-2.1,1.5-2.4h0c0,0.2-0.1,1.1-0.1,2.1v9.2h3.1v-15.9h-3.4l-5.6,8.3
	c-0.9,1.4-1.5,2.4-1.7,2.7h0c0-0.2,0.1-1.3,0.1-2.5v-8.5h-3.1V-117.8z M395.5-117.6c3.4,0,5.1-2.1,5.5-7.3l0.4-6h4.5v13.1h3.4v-15.9
	h-10.8l-0.6,7.9c-0.3,3.5-0.9,5.4-2.6,5.6L395.5-117.6z M374.2-117.8h3.4l1-3h6.3l1.1,3h3.7l-6.2-15.9h-3.2L374.2-117.8z
	 M379.5-123.5l1.4-3.8c0.5-1.3,0.7-2.4,0.8-2.7h0c0.1,0.4,0.4,1.4,0.9,2.7l1.4,3.8H379.5z M349.1-117.8h3l1-8.2c0.1-1,0.2-2,0.2-2.3
	h0c0.1,0.3,0.3,1.3,0.6,2.3l2.7,8.2h3.3l2.7-8.2c0.3-1,0.6-1.9,0.6-2.3h0c0,0.3,0.1,1.1,0.3,2.3l1,8.2h3.4l-2.2-15.9h-3.2l-3.3,9.8
	c-0.4,1.1-0.7,2.3-0.8,2.7h0c-0.1-0.5-0.4-1.6-0.8-2.7l-3.2-9.8h-3.3L349.1-117.8z M334.5-117.5c5.4,0,8.2-3.9,8.2-8.2
	c0-4.4-2.7-8.2-8.1-8.2c-2.3,0-4,0.9-4.9,1.6l1.4,2.4c0.8-0.6,1.9-1.1,3.4-1.1c2.6,0,4.1,1.8,4.5,4.1h-6.4v2.6h6.4
	c-0.3,2.3-1.9,4.1-4.5,4.1c-1.5,0-2.7-0.5-3.5-1l-1.5,2.5C330.8-118,332.3-117.5,334.5-117.5z M315.7-120.2c-3.2,0-4.6-2.6-4.6-5.6
	c0-3,1.5-5.4,4.7-5.4c3.2,0,4.6,2.6,4.6,5.5C320.3-122.8,318.9-120.2,315.7-120.2z M315.8-117.5c5.3,0,8.1-4,8.1-8.3
	c0-4.3-2.9-8.2-8.2-8.2c-5.3,0-8.2,3.9-8.2,8.2C307.5-121.4,310.5-117.5,315.8-117.5z M294.1-117.8h3.4v-13.1h4.4v-2.8h-12.1v2.8
	h4.4V-117.8z M276-127.2v-4h1.6c1.7,0,2.5,0.6,2.5,1.9c0,1.4-0.8,2.1-2.6,2.1H276z M276-120.4v-4.4h1.9c2,0,2.8,0.8,2.8,2.2
	c0,1.5-1,2.1-3,2.1H276z M272.6-117.8h5.2c3.6,0,6.2-1.2,6.2-4.4c0-2.3-1.6-3.5-3.5-3.8v0c1.7-0.5,2.8-1.6,2.8-3.6c0-3-2.6-4-5.5-4
	h-5.3V-117.8z M250.2-117.8h3.4l1-3h6.3l1.1,3h3.7l-6.2-15.9h-3.2L250.2-117.8z M255.6-123.5l1.4-3.8c0.5-1.3,0.7-2.4,0.8-2.7h0
	c0.1,0.4,0.4,1.4,0.9,2.7l1.4,3.8H255.6z"/>
<rect x="210" y="-149.3" class="st5" width="261.8" height="2.2"/>
<g>
	<path class="st6" d="M135.6,169.4c-16.4,2.6-38.6,2.5-52.8,0.3c29.3-4.5,48.3-50.3,53.8-73.6c6.4,10.4,10,22.7,10,35.8
		C146.6,145.8,142.6,158.7,135.6,169.4"/>
	<path class="st6" d="M73.2,63.3l-9.3,19.9l-0.2,0.5l-0.2,0.5l-0.2,0.5L63.1,85l-0.2,0.5l-0.2,0.5l-0.2,0.5l-0.2,0.5L62,87.3
		l-0.2,0.5l-0.2,0.5l-0.2,0.5l-0.2,0.5l-0.2,0.5h0L60.7,90l-0.2,0.5l-0.2,0.5L60,91.4l-0.2,0.4l-0.2,0.4l-0.2,0.4h0l-0.2,0.4
		l-0.2,0.4l-0.2,0.4l-0.2,0.4L58.3,95l-0.2,0.4l-0.2,0.4l-0.2,0.4l-0.2,0.4l-0.2,0.4L57,97.6h0L56.8,98h0l-0.2,0.4h0l-0.2,0.4h0
		l-0.2,0.4L56,99.8l-0.2,0.4h0l-0.2,0.4l-0.2,0.4l-0.2,0.4l-0.2,0.4l-0.2,0.4l-0.2,0.4h0l-0.2,0.4h0l-0.2,0.4h0l-0.2,0.4l-0.2,0.4
		l-0.2,0.4h0l-0.2,0.4h0l-0.2,0.4l-0.2,0.4l-0.2,0.4l-0.2,0.4l-0.2,0.4l-0.2,0.4l-0.2,0.4l-0.2,0.4l-0.2,0.4h0l-0.2,0.4l-0.2,0.4
		l-0.2,0.4l-0.2,0.4L51,111l-0.3,0.8l-0.1,0.3l0,0.1l-0.2,0.4l-0.2,0.4l-0.1,0.2l-0.1,0.1l-0.1,0.4l-0.1,0.4
		c-8.9,22.9-15.2,51.6-9.4,75.7c-19-12.3-31.5-33.6-31.5-57.9C8.8,95.5,37.2,65.6,73.2,63.3"/>
	<path class="st6" d="M56.3,197.5c-7.7-7.3-13.3-32.5-11.1-55.5c0.4,2.8,1.2,5.4,2.1,7.7c9.6,24.5,60.5,34.1,82.6,27.2
		c-12.6,14.6-31.3,23.9-52.2,23.9C70.2,200.9,63.1,199.7,56.3,197.5"/>
	<path class="st6" d="M127.1,84c-0.9,20.3-6.6,45.6-17.1,60.2c0.8-3.5,1.1-7.4,0.7-11.5c-0.5-6.4-2.6-13.2-6.1-21.7
		c-3.5-8.5-8.4-18-13-27.9l-9.2-19.9C100,64.5,115.6,72.2,127.1,84"/>
	<path class="st6" d="M422.6,132v-9.8h-1.2c-6.9,0-17.1,1.1-17.1,10.2c0,3.7,2.8,5.9,6.3,5.9C415.6,138.2,419.6,135.8,422.6,132
		 M279.5,132v-9.8h-1.2c-6.9,0-17.1,1.1-17.1,10.2c0,3.7,2.8,5.9,6.3,5.9C272.5,138.2,276.5,135.8,279.5,132z M459.1,98.4
		c4.2-4.3,9.6-6.9,15.7-6.9c10.8,0,16.2,6.8,16.2,17.2v37.7H480v-35.9c0-5.6-1.6-9.1-7.7-9.1c-5.3,0-10.1,4.2-13.2,8.2v36.7h-11
		V92.8h11V98.4z M422.6,113.9v-3.5c0-6.5-2.5-9.1-9-9.1c-5.1,0-8.9,2-12.8,5.2l-0.8,0.7l-5.7-7.7l0.6-0.6c5.4-5.1,12-7.3,19.3-7.3
		c12.4,0,19.2,5.8,19.2,18.5v23c0,4,0.3,8.3,1.3,12.2l0.3,1.2h-11l-0.2-0.7c-0.3-1.1-0.6-2.6-0.7-4c-3.8,3.8-9.1,6-14.4,6
		c-9,0-15.9-5.7-15.9-15c0-14.9,16.5-18.8,28.6-18.8H422.6z M360.6,147.7c-7.4,0-15.9-2.3-21.4-7.6l-0.6-0.6l5.9-8.5l0.8,0.8
		c4.3,4,9.7,5.8,15.5,5.8c5.4,0,11.3-2.6,12.7-8.2c0.2-0.7,0.3-1.4,0.3-2.1c0-1.7-0.4-3.2-1.2-4.7c-2.6-4.6-9.9-7.7-14.6-10
		c-9.5-4.6-17-9.8-17-21.4c0-12.5,10.6-19.6,22.2-19.6c7,0,14.2,1.6,19.8,6l0.7,0.6l-5.6,8.8l-0.9-0.7c-4-3.1-9-4.6-14-4.6
		c-5.6,0-10.9,2.9-10.9,9.1c0,1.6,0.3,3.1,1.2,4.5c2.2,3.7,7.5,6.1,11.2,7.8c10.8,5.1,20.5,10.2,20.5,24c0,3.6-0.9,7.1-2.8,10.2
		C378,144.8,369.1,147.7,360.6,147.7z M316,98.5c3.1-4,7.3-6.9,12.6-6.9c2.2,0,4.2,0.3,6.2,1.2l0.8,0.3l-2.8,10.5l-1.1-0.5
		c-1.3-0.6-2.9-0.8-4.3-0.8c-5.4,0-9.2,4.8-11.5,9.2v35h-11V92.8h11V98.5z M279.5,113.9v-3.5c0-6.5-2.5-9.1-9-9.1
		c-5.1,0-8.9,2-12.8,5.2l-0.8,0.7l-5.7-7.7l0.6-0.6c5.4-5.1,12-7.3,19.3-7.3c12.4,0,19.2,5.8,19.2,18.5v23c0,4,0.3,8.3,1.3,12.2
		l0.3,1.2h-11l-0.2-0.7c-0.3-1.1-0.6-2.6-0.7-4c-3.8,3.8-9.1,6-14.4,6c-9,0-15.9-5.7-15.9-15c0-14.9,16.5-18.8,28.6-18.8H279.5z
		 M220.8,147.7c-22,0-36.2-17-36.2-38.2c0-21.2,14.6-37.8,36.4-37.8c7.7,0,14.3,1.4,20.8,5.6l0.8,0.5l-5.8,8.9l-0.8-0.6
		c-4.6-3.1-9.7-4.4-15.2-4.4c-15.8,0-24,12.9-24,27.5c0,15,7.9,28.3,24.2,28.3c6.3,0,11.8-1.7,16.6-5.8l0.9-0.7l5.3,8.5l-0.6,0.6
		C237.8,145.4,228.2,147.7,220.8,147.7z"/>
	<path class="st7" d="M414.8,192.2h3.1l6.1-8.9c0.9-1.2,1.4-2.1,1.5-2.4h0c0,0.2-0.1,1.1-0.1,2.1v9.2h3.1v-15.9h-3.4l-5.6,8.3
		c-0.9,1.4-1.5,2.4-1.7,2.7h0c0-0.2,0.1-1.3,0.1-2.5v-8.5h-3.1V192.2z M392.5,192.4c3.4,0,5.1-2.1,5.5-7.3l0.4-6h4.5v13.1h3.4v-15.9
		h-10.8l-0.6,7.9c-0.3,3.5-0.9,5.4-2.6,5.6L392.5,192.4z M371.2,192.2h3.4l1-3h6.3l1.1,3h3.7l-6.2-15.9h-3.2L371.2,192.2z
		 M376.5,186.5l1.4-3.8c0.5-1.3,0.7-2.4,0.8-2.7h0c0.1,0.4,0.4,1.4,0.9,2.7l1.4,3.8H376.5z M346.1,192.2h3l1-8.2
		c0.1-1,0.2-2,0.2-2.3h0c0.1,0.3,0.3,1.3,0.6,2.3l2.7,8.2h3.3l2.7-8.2c0.3-1,0.6-1.9,0.6-2.3h0c0,0.3,0.1,1.1,0.3,2.3l1,8.2h3.4
		l-2.2-15.9h-3.2l-3.3,9.8c-0.4,1.1-0.7,2.3-0.8,2.7h0c-0.1-0.5-0.4-1.6-0.8-2.7l-3.2-9.8h-3.3L346.1,192.2z M331.5,192.5
		c5.4,0,8.2-3.9,8.2-8.2c0-4.4-2.7-8.2-8.1-8.2c-2.3,0-4,0.9-4.9,1.6l1.4,2.4c0.8-0.6,1.9-1.1,3.4-1.1c2.6,0,4.1,1.8,4.5,4.1h-6.4
		v2.6h6.4c-0.3,2.3-1.9,4.1-4.5,4.1c-1.5,0-2.7-0.5-3.5-1l-1.5,2.5C327.8,192,329.3,192.5,331.5,192.5z M312.7,189.8
		c-3.2,0-4.6-2.6-4.6-5.6c0-3,1.5-5.4,4.7-5.4c3.2,0,4.6,2.6,4.6,5.5C317.3,187.2,315.9,189.8,312.7,189.8z M312.8,192.5
		c5.3,0,8.1-4,8.1-8.3c0-4.3-2.9-8.2-8.2-8.2c-5.3,0-8.2,3.9-8.2,8.2C304.5,188.6,307.5,192.5,312.8,192.5z M291.1,192.2h3.4v-13.1
		h4.4v-2.8h-12.1v2.8h4.4V192.2z M273,182.8v-4h1.6c1.7,0,2.5,0.6,2.5,1.9c0,1.4-0.8,2.1-2.6,2.1H273z M273,189.6v-4.4h1.9
		c2,0,2.8,0.8,2.8,2.2c0,1.5-1,2.1-3,2.1H273z M269.6,192.2h5.2c3.6,0,6.2-1.2,6.2-4.4c0-2.3-1.6-3.5-3.5-3.8v0
		c1.7-0.5,2.8-1.6,2.8-3.6c0-3-2.6-4-5.5-4h-5.3V192.2z M247.2,192.2h3.4l1-3h6.3l1.1,3h3.7l-6.2-15.9h-3.2L247.2,192.2z
		 M252.6,186.5l1.4-3.8c0.5-1.3,0.7-2.4,0.8-2.7h0c0.1,0.4,0.4,1.4,0.9,2.7l1.4,3.8H252.6z"/>
	<rect x="207" y="160.7" class="st7" width="261.8" height="2.2"/>
</g>
</svg>
