<?xml version="1.0" encoding="utf-8"?>
<!-- Generator: Adobe Illustrator 17.0.0, SVG Export Plug-In . SVG Version: 6.00 Build 0)  -->
<svg version="1.2" baseProfile="tiny" id="Слой_1"
	 xmlns="http://www.w3.org/2000/svg" xmlns:xlink="http://www.w3.org/1999/xlink" x="0px" y="0px" width="300px" height="100px"
	 viewBox="0 0 300 100" xml:space="preserve">
<g>
	<path fill-rule="evenodd" fill="#6D6263" d="M252.591,63.252v-5.84h-0.686c-4.123,0-10.186,0.681-10.186,6.042
		c0,2.19,1.648,3.491,3.746,3.491C248.436,66.945,250.801,65.525,252.591,63.252 M167.533,63.252v-5.84h-0.686
		c-4.123,0-10.186,0.681-10.186,6.042c0,2.19,1.648,3.491,3.746,3.491C163.378,66.945,165.743,65.525,167.533,63.252z
		 M274.301,43.281c2.492-2.551,5.676-4.072,9.358-4.072c6.418,0,9.644,4.055,9.644,10.218v22.396h-6.599V50.51
		c0-3.299-0.977-5.404-4.575-5.404c-3.141,0-6.005,2.507-7.827,4.9v21.816h-6.535V39.974h6.535V43.281z M252.591,52.471v-2.088
		c0-3.837-1.486-5.404-5.34-5.404c-3.024,0-5.312,1.168-7.588,3.11l-0.482,0.411l-3.365-4.567l0.384-0.358
		c3.216-3.001,7.104-4.367,11.497-4.367c7.382,0,11.429,3.427,11.429,10.983v13.645c0,2.387,0.19,4.931,0.749,7.259l0.175,0.727
		h-6.539l-0.128-0.416c-0.198-0.646-0.33-1.534-0.418-2.376c-2.241,2.256-5.397,3.558-8.583,3.558c-5.376,0-9.452-3.41-9.452-8.942
		c0-8.882,9.825-11.174,16.976-11.174H252.591z M215.752,72.587c-4.382,0-9.475-1.391-12.714-4.5l-0.361-0.347l3.477-5.057
		l0.5,0.467c2.532,2.364,5.774,3.476,9.226,3.476c3.191,0,6.706-1.538,7.542-4.892c0.104-0.418,0.157-0.846,0.157-1.277
		c0-0.997-0.221-1.928-0.712-2.798c-1.557-2.758-5.904-4.571-8.65-5.918c-5.622-2.758-10.085-5.8-10.085-12.708
		c0-7.436,6.302-11.62,13.214-11.62c4.171,0,8.441,0.958,11.777,3.568l0.421,0.33l-3.314,5.208l-0.512-0.4
		c-2.353-1.841-5.337-2.744-8.308-2.744c-3.351,0-6.488,1.734-6.488,5.404c0,0.956,0.207,1.847,0.694,2.674
		c1.282,2.174,4.481,3.598,6.683,4.635c6.435,3.031,12.198,6.08,12.198,14.242c0,2.153-0.532,4.231-1.664,6.07
		C226.079,70.871,220.764,72.587,215.752,72.587z M189.243,43.319c1.838-2.36,4.335-4.111,7.508-4.111
		c1.312,0,2.471,0.168,3.675,0.686l0.468,0.201l-1.656,6.229L198.591,46c-0.753-0.377-1.716-0.448-2.542-0.448
		c-3.187,0-5.479,2.877-6.807,5.481v20.789h-6.535V39.974h6.535V43.319z M167.533,52.471v-2.088c0-3.837-1.486-5.404-5.34-5.404
		c-3.024,0-5.312,1.168-7.588,3.11l-0.482,0.411l-3.365-4.567l0.384-0.358c3.216-3.001,7.104-4.367,11.497-4.367
		c7.381,0,11.429,3.427,11.429,10.983v13.645c0,2.387,0.19,4.931,0.749,7.259l0.174,0.727h-6.539l-0.128-0.416
		c-0.198-0.646-0.33-1.534-0.418-2.376c-2.241,2.256-5.397,3.558-8.583,3.558c-5.376,0-9.452-3.41-9.452-8.942
		c0-8.882,9.825-11.174,16.976-11.174H167.533z M132.67,72.587c-13.06,0-21.503-10.1-21.503-22.715
		c0-12.594,8.703-22.46,21.631-22.46c4.595,0,8.501,0.819,12.373,3.348l0.495,0.323l-3.46,5.268l-0.496-0.339
		c-2.733-1.87-5.747-2.639-9.04-2.639c-9.392,0-14.267,7.656-14.267,16.371c0,8.888,4.719,16.818,14.394,16.818
		c3.716,0,7.029-1.026,9.886-3.432l0.519-0.438l3.167,5.067l-0.352,0.332C142.737,71.179,137.051,72.587,132.67,72.587z"/>
	<path fill-rule="evenodd" fill="#901B1D" d="M82.016,72.195c-9.769,1.57-22.944,1.497-31.367,0.192
		c17.397-2.688,28.674-29.904,31.974-43.711c3.779,6.2,5.958,13.485,5.958,21.278C88.58,58.155,86.167,65.791,82.016,72.195"/>
	<path fill-rule="evenodd" fill="#EC1C24" d="M44.94,9.105l-5.499,11.839l-0.127,0.273l-0.128,0.273l-0.128,0.273l-0.128,0.272
		l-0.129,0.272l-0.128,0.272l-0.129,0.272l-0.129,0.271l-0.129,0.271l-0.129,0.271l-0.129,0.27l-0.129,0.27l-0.129,0.27
		l-0.129,0.269h-0.001l-0.129,0.269l-0.129,0.268l-0.129,0.268l-0.129,0.268l-0.129,0.267l-0.129,0.266l-0.128,0.266h-0.001
		l-0.128,0.266l-0.128,0.265l-0.127,0.265l-0.128,0.265l-0.127,0.264l-0.127,0.263l-0.126,0.263l-0.126,0.262l-0.126,0.262
		l-0.126,0.261l-0.124,0.261h-0.001l-0.124,0.26h-0.001l-0.123,0.26h-0.001l-0.123,0.259h-0.001l-0.123,0.259l-0.122,0.257
		l-0.121,0.257h-0.001l-0.121,0.257l-0.12,0.255l-0.12,0.256l-0.119,0.254l-0.118,0.254l-0.117,0.254h-0.001l-0.116,0.252h-0.001
		l-0.115,0.251h-0.001l-0.115,0.251l-0.114,0.25l-0.113,0.25h-0.001l-0.112,0.249h-0.001l-0.111,0.248l-0.11,0.248l-0.109,0.246
		l-0.109,0.246l-0.107,0.245l-0.106,0.244l-0.105,0.243l-0.104,0.243L32.242,36.3h-0.001l-0.101,0.24l-0.101,0.24l-0.1,0.239
		l-0.098,0.238l-0.097,0.237l-0.19,0.47l-0.073,0.183l-0.02,0.05l-0.092,0.232l-0.091,0.231l-0.058,0.146l-0.032,0.082L31.1,39.117
		l-0.087,0.226c-5.263,13.591-9.011,30.672-5.581,45.01C14.159,77.061,6.698,64.379,6.698,49.954
		C6.698,28.25,23.587,10.494,44.94,9.105"/>
	<path fill-rule="evenodd" fill="#B71D22" d="M34.919,88.878c-4.549-4.355-7.912-19.306-6.594-32.954
		c0.261,1.655,0.689,3.196,1.233,4.577c5.731,14.568,35.938,20.257,49.085,16.193C71.135,85.39,60.03,90.895,47.639,90.895
		C43.198,90.895,38.923,90.185,34.919,88.878"/>
	<path fill-rule="evenodd" fill="#6D1517" d="M76.996,21.422c-0.532,12.083-3.902,27.082-10.135,35.77
		c0.452-2.091,0.639-4.398,0.439-6.816c-0.313-3.781-1.569-7.832-3.622-12.882c-2.053-5.049-4.99-10.724-7.696-16.551l-5.495-11.83
		C60.863,9.827,70.176,14.406,76.996,21.422"/>
</g>
</svg>
