<svg id="Слой_1" data-name="Слой 1" xmlns="http://www.w3.org/2000/svg" viewBox="0 0 32 32"><defs><style>.cls-1{fill:#786968;}</style></defs><title>icon</title><path class="cls-1" d="M24.09,18a4.92,4.92,0,0,1,1.5,3.94q0,3.75-2.68,5.33a14.75,14.75,0,0,1-7.47,1.58H8V5h6.5Q19.39,5,22,6.45a4.93,4.93,0,0,1,2.58,4.65,4.66,4.66,0,0,1-1.26,3.39,6.31,6.31,0,0,1-3.11,1.74A8.12,8.12,0,0,1,24.09,18Zm-11-9.31v6h2.48a4.58,4.58,0,0,0,2.86-.77,2.8,2.8,0,0,0,1-2.36A2.41,2.41,0,0,0,18.32,9.3,6.58,6.58,0,0,0,15,8.65Zm6,15.71a2.8,2.8,0,0,0,1.24-2.67q0-3.58-4.4-3.58H13.06v7h2.41A7.42,7.42,0,0,0,19.08,24.36Z"/></svg>